<svg width="134" height="140" viewBox="0 0 134 140" fill="none" xmlns="http://www.w3.org/2000/svg">
<path d="M67.0018 139.848C30.3313 139.848 0.5 110.017 0.5 73.3489C0.5 45.7714 17.9059 20.8757 43.3863 11.1768C45.5767 6.03532 51.5312 -1.52588e-05 67.4164 -1.52588e-05C83.7118 -1.52588e-05 89.5569 6.34779 91.6091 11.5715C116.507 21.5392 133.5 46.2595 133.5 73.3489C133.5 110.017 103.67 139.848 67.0018 139.848Z" fill="white"/>
<path opacity="0.9" d="M67.002 131.622C34.8678 131.622 8.72656 105.481 8.72656 73.3489C8.72656 47.5154 25.7683 24.7914 50.3833 17.4864V17.1602C50.3833 11.4813 56.5904 8.22636 67.4166 8.22636C78.2436 8.22636 84.4509 11.4813 84.4509 17.1602V17.7469C108.577 25.3097 125.274 47.9294 125.274 73.3489C125.274 105.481 99.1331 131.622 67.002 131.622Z" fill="#100F0D"/>
<path opacity="0.9" d="M119.685 73.3301C119.685 102.419 96.1011 126.001 67.0153 126.001C37.9219 126.001 14.3418 102.419 14.3418 73.3301C14.3418 44.2388 37.9219 20.6593 67.0153 20.6593C96.1011 20.6593 119.685 44.2388 119.685 73.3301Z" fill="#5382CB"/>
<path opacity="0.9" d="M95.6889 33.1111C94.3104 32.1541 93.3569 32.0196 92.8247 32.5132C92.2892 33.004 92.27 33.8623 93.9355 35.1758C95.9096 36.7333 99.6929 38.7517 104.408 43.8959C108.566 48.4204 110.957 53.4823 110.617 52.3553C110.397 51.6341 108.305 46.1881 104.958 41.9296C102.333 38.5814 99.1862 35.5242 95.6889 33.1111Z" fill="white"/>
<path opacity="0.9" d="M91.4501 31.485C91.1556 32.2474 89.4418 32.3077 87.6188 31.6112C85.7978 30.9174 84.5553 29.7328 84.8465 28.9705C85.1358 28.2082 86.8497 28.1534 88.6726 28.8444C90.4948 29.5382 91.7394 30.72 91.4501 31.485Z" fill="white"/>
<path opacity="0.9" d="M110.554 76.2064C110.554 100.282 91.0593 119.798 67.0155 119.798C42.9651 119.798 23.4702 100.282 23.4702 76.2064C23.4702 52.1305 42.9651 32.6149 67.0155 32.6149C91.0593 32.6149 110.554 52.1305 110.554 76.2064Z" fill="#32579F"/>
<path d="M108.492 76.4506C108.492 99.2678 89.9777 117.758 67.1624 117.758C44.3471 117.758 25.8569 99.2678 25.8569 76.4506C25.8569 66.2526 29.5547 56.9048 35.6976 49.7122C31.0574 56.1013 28.3196 63.9658 28.3196 72.4609C28.3196 93.9125 45.7127 111.328 67.1624 111.328C88.6335 111.328 106.027 93.9125 106.027 72.4609C106.027 63.9658 103.292 56.1013 98.6541 49.7122C104.797 56.9048 108.492 66.2526 108.492 76.4506Z" fill="#B1918A"/>
<path opacity="0.9" d="M106.027 72.4608C106.027 93.9125 88.6342 111.328 67.1631 111.328C45.7133 111.328 28.3203 93.9125 28.3203 72.4608C28.3203 63.9657 31.0581 56.1013 35.6983 49.7121C43.2498 40.792 54.5449 35.143 67.1631 35.143C79.7843 35.143 91.0785 40.792 98.6548 49.7121C103.293 56.1013 106.027 63.9657 106.027 72.4608Z" fill="white"/>
<path d="M25.8569 76.4505C25.8569 76.4477 25.8569 76.4478 25.8569 76.4478C25.8569 76.4341 25.8569 76.4229 25.8569 76.4092C25.8569 76.4229 25.8569 76.4367 25.8569 76.4505ZM25.8591 75.9733C26.1141 53.3754 44.5089 35.1348 67.1709 35.1348C82.3256 35.1348 95.5744 43.2927 102.763 55.4595C101.558 53.4249 100.181 51.5026 98.6541 49.712C91.0779 40.7919 79.7836 35.1429 67.1624 35.1429C54.5442 35.1429 43.2492 40.7919 35.6976 49.712C29.6509 56.7922 25.9737 65.959 25.8591 75.9733Z" fill="#27416D"/>
<path d="M107.156 86.676C107.606 84.2547 107.872 81.7649 107.872 79.212C107.872 74.1857 106.962 69.376 105.294 64.931C104.193 59.3316 101.886 54.1627 98.6541 49.7122C100.181 51.5028 101.558 53.425 102.763 55.4597C106.4 61.6103 108.484 68.7864 108.484 76.4479C108.484 79.9853 107.993 83.4019 107.156 86.676ZM27.1852 86.676C26.3571 83.4293 25.8665 80.051 25.8569 76.5521C25.8569 76.5219 25.8569 76.4918 25.8569 76.4589C25.8569 76.4562 25.8569 76.4533 25.8569 76.4506C25.8569 76.4369 25.8569 76.4231 25.8569 76.4094C25.8569 76.3819 25.8569 76.3546 25.8569 76.3271C25.8569 76.297 25.8569 76.2695 25.8569 76.2393C25.8569 76.2283 25.8569 76.2173 25.8569 76.2064C25.858 76.1735 25.858 76.1408 25.858 76.1052C25.858 76.0997 25.858 76.094 25.858 76.0885C25.8591 76.0502 25.8591 76.0117 25.8591 75.9761C25.8591 75.9733 25.8591 75.9734 25.8591 75.9734C25.9737 65.9592 29.6509 56.7924 35.6976 49.7122C32.4701 54.1544 30.164 59.3094 29.0586 64.8951C27.3854 69.3483 26.4698 74.1747 26.4698 79.212C26.4698 81.7649 26.7341 84.252 27.1852 86.676Z" fill="#95695F"/>
<path opacity="0.9" d="M105.295 64.9308C99.5119 49.4982 84.6241 38.5103 67.1718 38.5103C49.7294 38.5103 34.8523 49.4815 29.0596 64.895C30.1649 59.3093 32.471 54.1543 35.6985 49.712C43.2501 40.7919 54.5452 35.1429 67.1633 35.1429C79.7845 35.1429 91.0788 40.7919 98.655 49.712C101.887 54.1625 104.194 59.3314 105.295 64.9308Z" fill="#D8B9B0"/>
<path opacity="0.9" d="M67.0159 48.2999C66.086 48.2999 65.333 47.5485 65.333 46.6217V41.3923C65.333 40.4627 66.086 39.7088 67.0159 39.7088C67.9424 39.7088 68.6943 40.4627 68.6943 41.3923V46.6217C68.6943 47.5485 67.9424 48.2999 67.0159 48.2999Z" fill="#21293B"/>
<path opacity="0.9" d="M67.0159 106.948C66.086 106.948 65.333 106.197 65.333 105.27V100.038C65.333 99.1114 66.086 98.3574 67.0159 98.3574C67.9424 98.3574 68.6943 99.1114 68.6943 100.038V105.27C68.6943 106.197 67.9424 106.948 67.0159 106.948Z" fill="#21293B"/>
<path opacity="0.9" d="M92.0396 73.3301C92.0396 72.4033 92.7925 71.6492 93.721 71.6492H98.9538C99.8801 71.6492 100.633 72.4033 100.633 73.3301C100.633 74.2597 99.8801 75.011 98.9538 75.011H93.721C92.7925 75.011 92.0396 74.2597 92.0396 73.3301Z" fill="#21293B"/>
<path opacity="0.9" d="M33.3945 73.3301C33.3945 72.4033 34.1478 71.6492 35.0741 71.6492H40.3014C41.2302 71.6492 41.9832 72.4033 41.9832 73.3301C41.9832 74.2597 41.2302 75.011 40.3014 75.011H35.0741C34.1478 75.011 33.3945 74.2597 33.3945 73.3301Z" fill="#21293B"/>
<path opacity="0.9" d="M53.9388 50.6856C53.4002 50.9928 52.7147 50.8118 52.407 50.2743L49.7902 45.7442C49.4809 45.2095 49.6649 44.5239 50.2026 44.2141C50.7382 43.9042 51.4237 44.088 51.7322 44.6227L54.3482 49.1528C54.6567 49.6903 54.4765 50.3758 53.9388 50.6856Z" fill="#21293B"/>
<path opacity="0.9" d="M83.8242 102.446C83.2865 102.753 82.6031 102.572 82.2925 102.035L79.6789 97.5048C79.3683 96.9701 79.5503 96.2844 80.0859 95.9773C80.6247 95.6647 81.3069 95.8483 81.6176 96.383L84.2344 100.913C84.5418 101.453 84.3565 102.136 83.8242 102.446Z" fill="#21293B"/>
<path opacity="0.9" d="M44.3688 60.2555C44.0581 60.793 43.3759 60.974 42.837 60.6668L38.3081 58.0508C37.7707 57.741 37.5883 57.0557 37.899 56.521C38.2064 55.9835 38.8919 55.7971 39.4275 56.1097L43.9564 58.7254C44.4952 59.0325 44.6762 59.7181 44.3688 60.2555Z" fill="#21293B"/>
<path opacity="0.9" d="M96.1291 90.139C95.8184 90.6737 95.1351 90.8575 94.5974 90.5503L90.0685 87.9343C89.5329 87.6217 89.3476 86.9389 89.6593 86.4042C89.9667 85.8668 90.6523 85.683 91.1878 85.9929L95.7167 88.6089C96.2574 88.9188 96.4365 89.6016 96.1291 90.139Z" fill="#21293B"/>
<path opacity="0.9" d="M80.089 50.6856C80.6246 50.9928 81.3068 50.8118 81.6175 50.2743L84.2343 45.7442C84.5417 45.2095 84.3563 44.5239 83.8241 44.2141C83.2864 43.9042 82.603 44.088 82.2923 44.6227L79.6788 49.1528C79.3681 49.6903 79.5502 50.3758 80.089 50.6856Z" fill="#21293B"/>
<path opacity="0.9" d="M50.2026 102.446C50.7382 102.753 51.4237 102.572 51.7322 102.035L54.3482 97.5048C54.6567 96.9701 54.4765 96.2844 53.9388 95.9773C53.4002 95.6647 52.7147 95.8483 52.407 96.383L49.7902 100.913C49.4809 101.453 49.6649 102.136 50.2026 102.446Z" fill="#21293B"/>
<path opacity="0.9" d="M89.6593 60.2555C89.9667 60.793 90.6523 60.974 91.1878 60.6668L95.7167 58.0508C96.2574 57.741 96.4365 57.0557 96.1291 56.521C95.8184 55.9835 95.1351 55.7971 94.5974 56.1097L90.0685 58.7254C89.5329 59.0325 89.3476 59.7181 89.6593 60.2555Z" fill="#21293B"/>
<path opacity="0.9" d="M37.8991 90.139C38.2065 90.6737 38.892 90.8575 39.4256 90.5503L43.9564 87.9343C44.4953 87.6217 44.6763 86.9389 44.3689 86.4042C44.0582 85.8668 43.3726 85.683 42.8371 85.9929L38.3063 88.6089C37.7708 88.9188 37.5884 89.6016 37.8991 90.139Z" fill="#21293B"/>
<path d="M69.0661 73.3299C69.0661 74.4624 68.1483 75.3835 67.0161 75.3835C65.8775 75.3835 64.9595 74.4624 64.9595 73.3299C64.9595 72.1947 65.8775 71.276 67.0161 71.276C68.1483 71.276 69.0661 72.1947 69.0661 73.3299Z" fill="#21293B"/>
<path d="M67.0024 72.7596C66.5365 72.7596 66.1616 72.3838 66.1616 71.9177V51.7467C66.1616 51.2833 66.5365 50.9048 67.0024 50.9048C67.466 50.9048 67.8412 51.2833 67.8412 51.7467V71.9177C67.8412 72.3838 67.466 72.7596 67.0024 72.7596Z" fill="#21293B"/>
<path d="M82.999 83.4073L82.5811 83.2949L66.8923 74.2542C66.4872 74.0238 66.3512 73.5109 66.5816 73.1078C66.8138 72.7047 67.328 72.5648 67.7297 72.8006L83.4188 81.8416C83.8216 82.0692 83.9609 82.5846 83.7273 82.9877C83.5721 83.2565 83.2883 83.4073 82.999 83.4073Z" fill="#21293B"/>
<path opacity="0.9" d="M67.4177 30.7721C56.1172 30.7721 53.7466 27.4596 53.7466 24.6819V17.1603C53.7466 11.8543 65.133 11.5882 67.4177 11.5882C69.6981 11.5882 81.0875 11.8543 81.0875 17.1603V24.6819C81.0875 27.4596 78.715 30.7721 67.4177 30.7721Z" fill="#21293B"/>
<path opacity="0.9" d="M67.4171 13.8286C61.1047 13.8286 55.9868 15.3204 55.9868 17.1604V24.682C55.9868 26.5192 58.7805 28.5292 67.4171 28.5292C76.0526 28.5292 78.8449 26.5192 78.8449 24.682V17.1604C78.8449 15.3204 73.7281 13.8286 67.4171 13.8286Z" fill="#F68718"/>
<path opacity="0.9" d="M71.5811 28.3399C73.1128 28.1891 74.3607 27.9479 75.3622 27.649V16.5651H71.5811V28.3399Z" fill="#FBD120"/>
<path opacity="0.9" d="M77.2016 17.1605C77.2016 19.0032 72.8186 20.4947 67.4179 20.4947C62.0107 20.4947 57.6318 19.0032 57.6318 17.1605C57.6318 15.3205 62.0107 13.8287 67.4179 13.8287C72.8186 13.8287 77.2016 15.3205 77.2016 17.1605Z" fill="#F0EF1B"/>
</svg>
