<svg width="210" height="70" viewBox="0 0 210 70" fill="none" xmlns="http://www.w3.org/2000/svg">
<path d="M160.197 15.5679C165.744 11.4893 174.851 14.5026 174.851 24.3159C177.517 18.8092 189.171 20.1426 188.571 29.3692C192.184 26.9826 197.171 29.1426 197.011 34.2492C201.904 31.6226 210.891 37.0226 208.932 44.9946C206.277 44.1292 203.144 44.5826 200.571 46.7026C199.011 40.6359 192.611 38.7559 187.011 39.1425C182.652 39.4479 178.957 42.7426 177.557 46.1959C175.117 44.6613 171.904 44.3279 168.344 45.1425C162.237 46.5292 158.677 50.3159 157.904 55.5826C155.171 50.4759 147.677 52.6359 146.784 57.3692C144.851 50.4759 138.011 48.4759 133.344 48.9826C129.331 49.4092 124.184 51.6493 122.664 57.5293C119.344 54.3413 113.971 51.9945 108.117 52.4759C103.717 52.8359 99.6374 55.1025 97.1441 58.4479C96.4774 52.5679 85.0908 50.3559 80.8254 55.8759C78.7708 53.4759 75.3041 51.6226 71.5174 51.3026C67.7308 50.9946 62.6641 51.9692 59.7441 55.4226C58.9174 49.9426 51.3974 46.5679 46.1707 48.5679C44.5307 42.3279 32.1308 37.8092 26.3441 48.0359C25.6774 41.8092 20.7841 39.3692 16.3441 39.3692C9.66411 39.3692 6.11741 44.4759 5.90408 47.5826C4.30408 46.6892 2.51745 46.4759 0.810782 46.8092C-1.34789 38.9292 7.94408 32.8879 13.2374 36.4759C11.9041 28.4759 21.6774 25.1425 26.1841 30.4759C24.3574 23.3159 31.8255 18.2626 37.6241 20.3959C39.6521 12.9946 52.0508 8.66124 58.3441 16.9159C59.2374 11.5826 64.4374 8.08924 70.8508 8.98257C73.8374 9.39591 76.1841 10.8879 77.6908 12.7559C79.9041 6.72921 89.2654 5.46254 92.3441 10.8092C94.2774 0.049202 112.637 -4.88544 120.011 6.50256C122.464 5.26256 125.531 4.9012 129.011 5.8092C134.571 7.26254 137.517 11.9692 137.904 15.5826C141.291 5.80924 157.144 7.58259 160.184 15.5679H160.197Z" fill="#D87639"/>
<path d="M26.344 48.0359C32.1307 37.8092 44.5306 42.3279 46.1706 48.5679C51.3973 46.5679 58.9174 49.9426 59.744 55.4226C62.664 51.9692 67.7307 50.9946 71.5173 51.3026C75.304 51.6226 78.7707 53.4759 80.8253 55.8759C85.0907 50.3559 96.4773 52.5679 97.144 58.4479C99.6373 55.1025 103.717 52.8359 108.117 52.4759C113.971 51.9945 119.344 54.3413 122.664 57.5293C124.184 51.6493 129.331 49.4092 133.344 48.9826C138.011 48.4759 144.851 50.4759 146.784 57.3692C147.677 52.6359 155.171 50.4759 157.904 55.5826C158.677 50.3159 162.237 46.5292 168.344 45.1425C171.904 44.3279 175.117 44.6613 177.557 46.1959C178.892 42.9039 182.321 39.7866 186.415 39.2346C183.04 35.9693 176.727 36.4399 174.851 40.3159C174.851 30.5026 165.744 27.4893 160.197 31.5679H160.184C157.144 23.5826 141.291 21.8092 137.904 31.5826C137.517 27.9692 134.571 23.2625 129.011 21.8092C125.531 20.9012 122.464 21.2626 120.011 22.5026C112.637 11.1146 94.2774 16.0492 92.344 26.8092C89.2653 21.4625 79.904 22.7292 77.6907 28.7559C76.184 26.8879 73.8373 25.3959 70.8507 24.9826C64.4373 24.0892 59.2374 27.5826 58.344 32.9159C52.0507 24.6612 39.652 28.9946 37.624 36.3959C31.8254 34.2626 24.3573 39.3159 26.184 46.4759L26.016 46.3079C26.16 46.8519 26.2774 47.4199 26.344 48.0359Z" fill="#B74F2F"/>
<path d="M185.23 49.5867C185.23 60.8147 151.652 69.92 110.23 69.92C68.8105 69.92 35.2305 60.8147 35.2305 49.5867C35.2305 38.3587 68.8105 29.2534 110.23 29.2534C151.652 29.2534 185.23 38.3587 185.23 49.5867Z" fill="#612D26"/>
</svg>
