<svg width="222" height="53" viewBox="0 0 222 53" fill="none" xmlns="http://www.w3.org/2000/svg">
<path d="M215.932 5.99459C219.411 7.11459 222.104 10.4759 221.784 15.2493C221.291 22.7959 216.331 25.0493 211.224 24.3159C211.224 25.6746 210.917 27.1293 210.237 28.5826C207.879 33.6893 199.571 35.7026 191.571 32.1426C189.599 42.7426 175.571 43.328 170.117 39.9013C167.371 46.1293 158.265 47.9159 153.397 43.9559C151.304 50.1559 140.104 51.3959 136.171 45.1426C132.517 50.4759 126.291 53.1426 116.171 52.1426C110.599 51.5826 107.171 49.7293 105.144 47.4359C96.4507 55.7159 81.7974 50.3026 79.504 43.1426C77.184 46.3026 71.8508 48.3026 65.3441 47.1426C61.7041 46.4892 58.0374 44.0226 56.3841 40.4359C51.0774 46.8093 38.1174 43.5679 37.1841 35.8092C30.9574 38.0892 19.5041 37.4759 15.8507 31.9826C14.5707 30.0626 13.8374 28.1959 13.5307 26.4359C5.47741 27.0493 0.304088 23.4626 0.0107543 17.4759C-0.229246 12.6226 3.58409 8.59591 7.81075 7.80924C9.51742 7.47591 11.304 7.68928 12.904 8.58261C13.1174 5.47595 16.6641 0.369267 23.3441 0.369267C27.7841 0.369267 32.6774 2.80927 33.3441 9.03593C39.1308 -1.19073 51.5307 3.32796 53.1707 9.56797C58.3974 7.56797 65.9174 10.9426 66.7441 16.4226C69.6641 12.9693 74.7307 11.9946 78.5174 12.3026C82.3041 12.6226 85.7707 14.4759 87.8254 16.8759C92.0907 11.3559 103.477 13.5679 104.144 19.4479C106.637 16.1026 110.717 13.8359 115.117 13.4759C120.971 12.9946 126.344 15.3413 129.664 18.5293C131.184 12.6493 136.331 10.4093 140.344 9.98262C145.011 9.47595 151.851 11.4759 153.784 18.3693C154.677 13.6359 162.171 11.4759 164.904 16.5826C165.677 11.3159 169.237 7.52924 175.344 6.14257C178.904 5.32791 182.117 5.66129 184.557 7.19596C185.957 3.74263 189.652 0.44791 194.011 0.142574C199.611 -0.244091 206.011 1.63594 207.571 7.7026C210.144 5.5826 213.277 5.12926 215.932 5.99459Z" fill="#E88D3A"/>
<path d="M216.549 6.25326C215.979 13.2239 211.319 15.3173 206.513 14.6279C206.513 15.9239 206.221 17.3093 205.575 18.6933C203.325 23.56 195.408 25.4799 187.784 22.0866C185.903 32.1893 172.535 32.7479 167.337 29.4826C164.719 35.4173 156.043 37.1199 151.403 33.3439C149.407 39.2533 138.735 40.4359 134.985 34.4759C131.501 39.5586 125.568 42.1012 115.924 41.1479C110.612 40.6132 107.345 38.8466 105.415 36.6613C97.1293 44.5519 83.1626 39.3933 80.9786 32.5706C78.7679 35.5813 73.6839 37.4879 67.4839 36.3813C64.0133 35.7599 60.5186 33.4093 58.944 29.9906C53.8853 36.064 41.5359 32.9772 40.6453 25.5812C34.7106 27.7533 23.7946 27.1693 20.3133 21.9333C19.0933 20.1039 18.3933 18.3253 18.1026 16.6493C10.6973 17.212 5.8613 14.0453 5.2773 8.69727C2.18396 10.3026 -0.178703 13.6252 0.0106299 17.4759C0.303963 23.4626 5.47728 27.0493 13.5306 26.4359C13.8373 28.1959 14.5706 30.0626 15.8506 31.9826C19.5039 37.4759 30.9573 38.0892 37.1839 35.8092C38.1173 43.5679 51.0773 46.8093 56.3839 40.4359C58.0373 44.0226 61.704 46.4892 65.344 47.1426C71.8506 48.3026 77.1839 46.3026 79.5039 43.1426C81.7973 50.3026 96.4506 55.7159 105.144 47.4359C107.171 49.7293 110.599 51.5826 116.171 52.1426C126.291 53.1426 132.517 50.4759 136.171 45.1426C140.104 51.3959 151.304 50.1559 153.397 43.9559C158.265 47.9159 167.371 46.1293 170.117 39.9013C175.571 43.328 189.599 42.7426 191.571 32.1426C199.571 35.7026 207.879 33.6893 210.237 28.5826C210.917 27.1293 211.224 25.6746 211.224 24.316C216.331 25.0493 221.291 22.796 221.784 15.2493C222.085 10.7693 219.719 7.55726 216.549 6.25326Z" fill="#D87639"/>
<path d="M29.8037 10.5453L29.8277 10.5627L29.8837 10.6027L29.8037 10.5453Z" fill="#F1AC56"/>
<path d="M30.3279 10.9495C30.1612 10.8215 29.9932 10.6921 29.8279 10.5628C29.2892 10.0815 28.6478 9.76281 27.9732 9.63215C28.2225 9.00015 28.3532 8.25877 28.2719 7.58677C28.0705 5.90143 27.4572 4.79477 26.0732 3.7841C24.9918 2.99477 23.5025 3.08142 22.2665 3.27609C21.1839 3.44809 20.1492 4.23744 19.3758 4.95877C17.5532 6.65744 16.4798 9.5628 17.8345 11.8575C18.9225 13.6961 21.3025 14.4068 23.3425 13.9708C23.2879 14.5615 23.3532 15.1588 23.5919 15.7348C23.9385 16.5708 24.0652 16.7935 24.6439 17.5108C25.1879 18.1855 26.1919 18.4561 27.0106 18.4908C27.2759 18.5015 27.9319 18.6814 27.0959 18.4614C28.6199 18.8628 30.1612 18.2095 30.9839 16.8801C31.5452 15.9721 31.5279 14.9654 31.5639 13.9481C31.5905 13.2041 31.3945 12.3908 30.9919 11.7614C30.8252 11.4401 30.6025 11.1695 30.3279 10.9495Z" fill="#F1AC56"/>
<path d="M55.1814 18.7506L54.9201 18.5573C54.5681 18.1333 54.1374 17.7839 53.6401 17.5452C53.2147 16.2319 52.3428 15.0919 51.0601 14.2892C50.2441 13.7786 49.1308 13.5079 48.1148 13.6026C48.1388 13.3506 48.1588 13.0972 48.1414 12.8532C48.0401 11.4172 47.5348 10.2613 46.5814 9.18527C45.0081 7.4106 41.9455 7.51061 40.3548 9.15461C39.1841 10.3626 39.0481 11.9892 39.6481 13.3146C39.3721 14.4826 39.7974 15.7653 40.6001 16.6493C41.2894 17.4119 42.5348 17.7639 43.5481 17.6972C43.0308 18.9066 42.9267 20.3213 43.2761 21.5386C43.9681 23.9359 46.1561 24.9159 48.3694 24.7919C49.1774 24.9266 50.0135 24.9359 50.8881 24.9146L51.0161 24.9693H51.0241C52.4175 25.5426 53.9708 25.412 55.1814 24.2013C56.5468 22.836 56.8228 20.0679 55.1814 18.7506Z" fill="#F1AC56"/>
<path d="M74.7413 17.3759C73.4346 17.6759 72.1173 18.2959 71.052 19.1746C70.728 18.9666 70.376 18.7919 69.98 18.6306C71.556 19.2732 70.6053 18.8546 70.2199 18.6612C69.2213 18.1612 68.5386 18.0132 67.4373 17.8972C66.5919 17.8092 65.5346 18.1213 64.8213 18.5626C63.972 19.0893 63.0173 20.0559 62.8679 21.0759C62.7053 22.1825 62.704 22.3559 62.8693 23.4599C63.0626 24.7639 64.4119 25.8706 65.6066 26.1986C65.9839 26.3026 66.3853 26.3386 66.788 26.3213L66.936 26.3759C67.8026 26.6025 68.6026 26.4985 69.3933 26.2479C69.664 26.7839 69.9973 27.2866 70.4119 27.7239C70.9146 28.9133 71.8973 29.9252 73.3626 30.4106C75.988 31.2799 79.3253 30.8106 81.5226 29.1719C84.8373 26.7039 86.048 22.4132 83.1053 19.1145C81.148 16.9212 77.396 16.7665 74.7413 17.3759Z" fill="#F1AC56"/>
<path d="M58.6787 12.8855C57.1467 12.8855 55.8667 14.1642 55.8667 15.6989C55.8667 17.2322 57.1467 18.5109 58.6787 18.5109C60.212 18.5109 61.492 17.2322 61.492 15.6989C61.492 14.1642 60.212 12.8855 58.6787 12.8855Z" fill="#F1AC56"/>
<path d="M131.567 26.924C130.176 26.924 129.015 28.0839 129.015 29.4759C129.015 30.8679 130.176 32.028 131.567 32.028C132.957 32.028 134.119 30.8679 134.119 29.4759C134.119 28.0839 132.957 26.924 131.567 26.924Z" fill="#F1AC56"/>
<path d="M33.537 18.9506L33.4384 19.024C32.3797 19.32 31.697 20.7333 32.669 21.7066C33.645 22.6826 35.0664 21.9933 35.3571 20.9306L35.425 20.8386C36.233 19.7453 34.629 18.1399 33.537 18.9506Z" fill="#F1AC56"/>
<path d="M99.4637 22.8493C98.4357 22.3933 97.6544 22.1386 96.4984 22.1119C95.4557 22.0893 94.389 22.516 93.489 22.9826C91.0344 24.2533 89.7931 27.6386 91.3291 30.0466C91.7984 30.7813 92.433 31.36 93.1757 31.732C93.7664 32.3653 94.5277 32.836 95.3691 33.016C96.5944 33.276 97.6597 33.0653 98.7771 32.5133L98.965 32.392C99.8237 31.7213 99.9277 31.6466 99.2771 32.164C99.6624 31.9253 100.018 31.6253 100.354 31.3199C101.55 30.2266 102.161 28.9906 102.316 27.3666C102.489 25.5493 101.068 23.56 99.4637 22.8493Z" fill="#F1AC56"/>
<path d="M125.972 22.4011C124.272 20.6438 121.888 19.8237 119.511 19.5744C116.511 19.2637 114.049 20.1171 112.269 22.6411C112.056 22.9424 111.879 23.2518 111.719 23.5651C110.403 22.9678 108.832 22.8797 107.403 23.1277C107.089 23.1824 106.793 23.2824 106.512 23.4117C104.556 24.0997 103.231 26.2571 103.468 28.3131C103.728 30.5691 105.101 32.4664 107.413 32.9797C109.399 33.4197 111.303 32.9117 112.855 31.6277L112.887 31.5944C113.891 32.7011 115.245 33.5344 116.852 33.8904C117.26 33.9824 117.664 34.0278 118.069 34.0518C118.955 34.2158 119.861 34.1717 120.701 33.9171C120.835 33.9277 120.964 33.9411 121.1 33.9477C126.775 34.1877 129.769 26.3264 125.972 22.4011Z" fill="#F1AC56"/>
<path d="M147.533 18.5735C147.505 18.3641 147.467 18.1561 147.4 17.9507C147.043 16.8681 145.977 15.7801 144.724 15.9147C143.361 16.0601 142.179 16.5588 141.444 17.8028C141.045 18.4801 140.953 19.2095 141.052 19.9015C138.825 20.0335 136.981 21.7308 136.911 24.0134C136.852 24.2041 136.801 24.3934 136.765 24.5814C136.432 26.2694 137.22 28.3521 139.116 28.7214C140.339 28.9614 141.421 29.0627 142.648 28.8281C144.907 28.3987 146.269 26.3321 146.356 24.1427C146.38 23.5574 146.237 22.9974 145.995 22.4828C147.015 21.8761 147.691 20.7268 147.625 19.5601L147.636 19.4801C147.625 19.1001 147.504 18.2588 147.533 18.5735Z" fill="#F1AC56"/>
<path d="M189.011 12.492C188.14 12.492 187.335 12.792 186.673 13.28L186.573 13.0253C186.444 12.7506 186.137 11.8933 186.527 13.068C186.337 12.4973 186.057 11.852 185.713 11.3373C184.105 8.93333 181.6 7.93732 178.769 8.36532C180.416 8.11732 178.533 8.32797 177.983 8.51331C177.145 8.79197 176.389 9.18531 175.759 9.81597C174.552 11.0213 174.012 12.9 174.46 14.5546L174.401 14.9026C173.759 14.868 173.067 14.9373 172.587 15.1119C171.431 15.5333 170.703 16.1466 169.975 17.0186C169.56 16.8853 169.131 16.7933 168.677 16.7933C166.571 16.7933 164.783 18.3573 164.409 20.368C163.992 19.9853 163.524 19.6559 163.081 19.4173C161.679 18.6626 160.128 18.4279 158.579 18.8226C156.889 19.2519 155.479 20.98 155.547 22.7573L155.492 22.824C154.905 23.652 154.944 24.8133 155.149 25.7453C155.376 26.7839 156.263 27.6986 157.139 28.2506C158.155 28.8919 159.492 29.1386 160.676 29.0186C162.044 28.8826 163.687 28.5359 164.647 27.4426C165.237 26.7693 165.716 26.0973 165.929 25.208C165.984 24.9773 166.001 24.7613 166.021 24.544C166.763 25.1266 167.679 25.492 168.677 25.492C169.357 25.492 169.995 25.3147 170.573 25.0267C170.804 25.1933 171.048 25.3359 171.307 25.4559C171.72 26.1426 172.508 26.86 173.325 26.992C174.499 27.1853 175.461 27.3959 176.663 27.1559C178.432 26.8026 179.548 25.0893 180.128 23.5213C180.349 22.924 180.421 22.3279 180.385 21.7533C181.22 21.7506 182.045 21.6466 182.741 21.4906C184.027 21.2026 185.273 20.3106 186.12 19.1813C186.852 19.9613 187.879 20.46 189.011 20.46C191.183 20.46 192.995 18.6479 192.995 16.4759C192.995 14.3039 191.183 12.492 189.011 12.492Z" fill="#F1AC56"/>
<path d="M215.932 5.99459C219.411 7.11459 222.104 10.4759 221.784 15.2493C221.291 22.7959 216.331 25.0493 211.224 24.3159C211.224 25.6746 210.917 27.1293 210.237 28.5826C207.879 33.6893 199.571 35.7026 191.571 32.1426C189.599 42.7426 175.571 43.328 170.117 39.9013C167.371 46.1293 158.265 47.9159 153.397 43.9559C151.304 50.1559 140.104 51.3959 136.171 45.1426C132.517 50.4759 126.291 53.1426 116.171 52.1426C110.599 51.5826 107.171 49.7293 105.144 47.4359C96.4507 55.7159 81.7974 50.3026 79.504 43.1426C77.184 46.3026 71.8508 48.3026 65.3441 47.1426C61.7041 46.4892 58.0374 44.0226 56.3841 40.4359C51.0774 46.8093 38.1174 43.5679 37.1841 35.8092C30.9574 38.0892 19.5041 37.4759 15.8507 31.9826C14.5707 30.0626 13.8374 28.1959 13.5307 26.4359C5.47741 27.0493 0.304088 23.4626 0.0107543 17.4759C-0.229246 12.6226 3.58409 8.59591 7.81075 7.80924C9.51742 7.47591 11.304 7.68928 12.904 8.58261C13.1174 5.47595 16.6641 0.369267 23.3441 0.369267C27.7841 0.369267 32.6774 2.80927 33.3441 9.03593C39.1308 -1.19073 51.5307 3.32796 53.1707 9.56797C58.3974 7.56797 65.9174 10.9426 66.7441 16.4226C69.6641 12.9693 74.7307 11.9946 78.5174 12.3026C82.3041 12.6226 85.7707 14.4759 87.8254 16.8759C92.0907 11.3559 103.477 13.5679 104.144 19.4479C106.637 16.1026 110.717 13.8359 115.117 13.4759C120.971 12.9946 126.344 15.3413 129.664 18.5293C131.184 12.6493 136.331 10.4093 140.344 9.98262C145.011 9.47595 151.851 11.4759 153.784 18.3693C154.677 13.6359 162.171 11.4759 164.904 16.5826C165.677 11.3159 169.237 7.52924 175.344 6.14257C178.904 5.32791 182.117 5.66129 184.557 7.19596C185.957 3.74263 189.652 0.44791 194.011 0.142574C199.611 -0.244091 206.011 1.63594 207.571 7.7026C210.144 5.5826 213.277 5.12926 215.932 5.99459Z" fill="#E88D3A"/>
<path d="M216.549 6.25326C215.979 13.2239 211.319 15.3173 206.513 14.6279C206.513 15.9239 206.221 17.3093 205.575 18.6933C203.325 23.56 195.408 25.4799 187.784 22.0866C185.903 32.1893 172.535 32.7479 167.337 29.4826C164.719 35.4173 156.043 37.1199 151.403 33.3439C149.407 39.2533 138.735 40.4359 134.985 34.4759C131.501 39.5586 125.568 42.1012 115.924 41.1479C110.612 40.6132 107.345 38.8466 105.415 36.6613C97.1293 44.5519 83.1626 39.3933 80.9786 32.5706C78.7679 35.5813 73.6839 37.4879 67.4839 36.3813C64.0133 35.7599 60.5186 33.4093 58.944 29.9906C53.8853 36.064 41.5359 32.9772 40.6453 25.5812C34.7106 27.7533 23.7946 27.1693 20.3133 21.9333C19.0933 20.1039 18.3933 18.3253 18.1026 16.6493C10.6973 17.212 5.8613 14.0453 5.2773 8.69727C2.18396 10.3026 -0.178703 13.6252 0.0106299 17.4759C0.303963 23.4626 5.47728 27.0493 13.5306 26.4359C13.8373 28.1959 14.5706 30.0626 15.8506 31.9826C19.5039 37.4759 30.9573 38.0892 37.1839 35.8092C38.1173 43.5679 51.0773 46.8093 56.3839 40.4359C58.0373 44.0226 61.704 46.4892 65.344 47.1426C71.8506 48.3026 77.1839 46.3026 79.5039 43.1426C81.7973 50.3026 96.4506 55.7159 105.144 47.4359C107.171 49.7293 110.599 51.5826 116.171 52.1426C126.291 53.1426 132.517 50.4759 136.171 45.1426C140.104 51.3959 151.304 50.1559 153.397 43.9559C158.265 47.9159 167.371 46.1293 170.117 39.9013C175.571 43.328 189.599 42.7426 191.571 32.1426C199.571 35.7026 207.879 33.6893 210.237 28.5826C210.917 27.1293 211.224 25.6746 211.224 24.316C216.331 25.0493 221.291 22.796 221.784 15.2493C222.085 10.7693 219.719 7.55726 216.549 6.25326Z" fill="#D87639"/>
<path d="M29.8037 10.5453L29.8277 10.5627L29.8837 10.6027L29.8037 10.5453Z" fill="#F1AC56"/>
<path d="M30.3279 10.9495C30.1612 10.8215 29.9932 10.6921 29.8279 10.5628C29.2892 10.0815 28.6478 9.76281 27.9732 9.63215C28.2225 9.00015 28.3532 8.25877 28.2719 7.58677C28.0705 5.90143 27.4572 4.79477 26.0732 3.7841C24.9918 2.99477 23.5025 3.08142 22.2665 3.27609C21.1839 3.44809 20.1492 4.23744 19.3758 4.95877C17.5532 6.65744 16.4798 9.5628 17.8345 11.8575C18.9225 13.6961 21.3025 14.4068 23.3425 13.9708C23.2879 14.5615 23.3532 15.1588 23.5919 15.7348C23.9385 16.5708 24.0652 16.7935 24.6439 17.5108C25.1879 18.1855 26.1919 18.4561 27.0106 18.4908C27.2759 18.5015 27.9319 18.6814 27.0959 18.4614C28.6199 18.8628 30.1612 18.2095 30.9839 16.8801C31.5452 15.9721 31.5279 14.9654 31.5639 13.9481C31.5905 13.2041 31.3945 12.3908 30.9919 11.7614C30.8252 11.4401 30.6025 11.1695 30.3279 10.9495Z" fill="#F1AC56"/>
<path d="M55.1814 18.7506L54.9201 18.5573C54.5681 18.1333 54.1374 17.7839 53.6401 17.5452C53.2147 16.2319 52.3428 15.0919 51.0601 14.2892C50.2441 13.7786 49.1308 13.5079 48.1148 13.6026C48.1388 13.3506 48.1588 13.0972 48.1414 12.8532C48.0401 11.4172 47.5348 10.2613 46.5814 9.18527C45.0081 7.4106 41.9455 7.51061 40.3548 9.15461C39.1841 10.3626 39.0481 11.9892 39.6481 13.3146C39.3721 14.4826 39.7974 15.7653 40.6001 16.6493C41.2894 17.4119 42.5348 17.7639 43.5481 17.6972C43.0308 18.9066 42.9267 20.3213 43.2761 21.5386C43.9681 23.9359 46.1561 24.9159 48.3694 24.7919C49.1774 24.9266 50.0135 24.9359 50.8881 24.9146L51.0161 24.9693H51.0241C52.4175 25.5426 53.9708 25.412 55.1814 24.2013C56.5468 22.836 56.8228 20.0679 55.1814 18.7506Z" fill="#F1AC56"/>
<path d="M74.7413 17.3759C73.4346 17.6759 72.1173 18.2959 71.052 19.1746C70.728 18.9666 70.376 18.7919 69.98 18.6306C71.556 19.2732 70.6053 18.8546 70.2199 18.6612C69.2213 18.1612 68.5386 18.0132 67.4373 17.8972C66.5919 17.8092 65.5346 18.1213 64.8213 18.5626C63.972 19.0893 63.0173 20.0559 62.8679 21.0759C62.7053 22.1825 62.704 22.3559 62.8693 23.4599C63.0626 24.7639 64.4119 25.8706 65.6066 26.1986C65.9839 26.3026 66.3853 26.3386 66.788 26.3213L66.936 26.3759C67.8026 26.6025 68.6026 26.4985 69.3933 26.2479C69.664 26.7839 69.9973 27.2866 70.4119 27.7239C70.9146 28.9133 71.8973 29.9252 73.3626 30.4106C75.988 31.2799 79.3253 30.8106 81.5226 29.1719C84.8373 26.7039 86.048 22.4132 83.1053 19.1145C81.148 16.9212 77.396 16.7665 74.7413 17.3759Z" fill="#F1AC56"/>
<path d="M58.6787 12.8855C57.1467 12.8855 55.8667 14.1642 55.8667 15.6989C55.8667 17.2322 57.1467 18.5109 58.6787 18.5109C60.212 18.5109 61.492 17.2322 61.492 15.6989C61.492 14.1642 60.212 12.8855 58.6787 12.8855Z" fill="#F1AC56"/>
<path d="M131.567 26.924C130.176 26.924 129.015 28.0839 129.015 29.4759C129.015 30.8679 130.176 32.028 131.567 32.028C132.957 32.028 134.119 30.8679 134.119 29.4759C134.119 28.0839 132.957 26.924 131.567 26.924Z" fill="#F1AC56"/>
<path d="M33.537 18.9506L33.4384 19.024C32.3797 19.32 31.697 20.7333 32.669 21.7066C33.645 22.6826 35.0664 21.9933 35.3571 20.9306L35.425 20.8386C36.233 19.7453 34.629 18.1399 33.537 18.9506Z" fill="#F1AC56"/>
<path d="M99.4637 22.8493C98.4357 22.3933 97.6544 22.1386 96.4984 22.1119C95.4557 22.0893 94.389 22.516 93.489 22.9826C91.0344 24.2533 89.7931 27.6386 91.3291 30.0466C91.7984 30.7813 92.433 31.36 93.1757 31.732C93.7664 32.3653 94.5277 32.836 95.3691 33.016C96.5944 33.276 97.6597 33.0653 98.7771 32.5133L98.965 32.392C99.8237 31.7213 99.9277 31.6466 99.2771 32.164C99.6624 31.9253 100.018 31.6253 100.354 31.3199C101.55 30.2266 102.161 28.9906 102.316 27.3666C102.489 25.5493 101.068 23.56 99.4637 22.8493Z" fill="#F1AC56"/>
<path d="M125.972 22.4011C124.272 20.6438 121.888 19.8237 119.511 19.5744C116.511 19.2637 114.049 20.1171 112.269 22.6411C112.056 22.9424 111.879 23.2518 111.719 23.5651C110.403 22.9678 108.832 22.8797 107.403 23.1277C107.089 23.1824 106.793 23.2824 106.512 23.4117C104.556 24.0997 103.231 26.2571 103.468 28.3131C103.728 30.5691 105.101 32.4664 107.413 32.9797C109.399 33.4197 111.303 32.9117 112.855 31.6277L112.887 31.5944C113.891 32.7011 115.245 33.5344 116.852 33.8904C117.26 33.9824 117.664 34.0278 118.069 34.0518C118.955 34.2158 119.861 34.1717 120.701 33.9171C120.835 33.9277 120.964 33.9411 121.1 33.9477C126.775 34.1877 129.769 26.3264 125.972 22.4011Z" fill="#F1AC56"/>
<path d="M147.533 18.5735C147.505 18.3641 147.467 18.1561 147.4 17.9507C147.043 16.8681 145.977 15.7801 144.724 15.9147C143.361 16.0601 142.179 16.5588 141.444 17.8028C141.045 18.4801 140.953 19.2095 141.052 19.9015C138.825 20.0335 136.981 21.7308 136.911 24.0134C136.852 24.2041 136.801 24.3934 136.765 24.5814C136.432 26.2694 137.22 28.3521 139.116 28.7214C140.339 28.9614 141.421 29.0627 142.648 28.8281C144.907 28.3987 146.269 26.3321 146.356 24.1427C146.38 23.5574 146.237 22.9974 145.995 22.4828C147.015 21.8761 147.691 20.7268 147.625 19.5601L147.636 19.4801C147.625 19.1001 147.504 18.2588 147.533 18.5735Z" fill="#F1AC56"/>
<path d="M189.011 12.492C188.14 12.492 187.335 12.792 186.673 13.28L186.573 13.0253C186.444 12.7506 186.137 11.8933 186.527 13.068C186.337 12.4973 186.057 11.852 185.713 11.3373C184.105 8.93333 181.6 7.93732 178.769 8.36532C180.416 8.11732 178.533 8.32797 177.983 8.51331C177.145 8.79197 176.389 9.18531 175.759 9.81597C174.552 11.0213 174.012 12.9 174.46 14.5546L174.401 14.9026C173.759 14.868 173.067 14.9373 172.587 15.1119C171.431 15.5333 170.703 16.1466 169.975 17.0186C169.56 16.8853 169.131 16.7933 168.677 16.7933C166.571 16.7933 164.783 18.3573 164.409 20.368C163.992 19.9853 163.524 19.6559 163.081 19.4173C161.679 18.6626 160.128 18.4279 158.579 18.8226C156.889 19.2519 155.479 20.98 155.547 22.7573L155.492 22.824C154.905 23.652 154.944 24.8133 155.149 25.7453C155.376 26.7839 156.263 27.6986 157.139 28.2506C158.155 28.8919 159.492 29.1386 160.676 29.0186C162.044 28.8826 163.687 28.5359 164.647 27.4426C165.237 26.7693 165.716 26.0973 165.929 25.208C165.984 24.9773 166.001 24.7613 166.021 24.544C166.763 25.1266 167.679 25.492 168.677 25.492C169.357 25.492 169.995 25.3147 170.573 25.0267C170.804 25.1933 171.048 25.3359 171.307 25.4559C171.72 26.1426 172.508 26.86 173.325 26.992C174.499 27.1853 175.461 27.3959 176.663 27.1559C178.432 26.8026 179.548 25.0893 180.128 23.5213C180.349 22.924 180.421 22.3279 180.385 21.7533C181.22 21.7506 182.045 21.6466 182.741 21.4906C184.027 21.2026 185.273 20.3106 186.12 19.1813C186.852 19.9613 187.879 20.46 189.011 20.46C191.183 20.46 192.995 18.6479 192.995 16.4759C192.995 14.3039 191.183 12.492 189.011 12.492Z" fill="#F1AC56"/>
</svg>
