<svg width="122" height="149" viewBox="0 0 122 149" fill="none" xmlns="http://www.w3.org/2000/svg">
<path d="M60.8355 146.151C72.7608 146.151 110.614 144.076 119.429 138.372C117.873 99.4826 114.286 58.0466 108.54 40.6293C100.817 17.22 82.8502 2 60.8355 2C38.8208 2 20.8542 17.22 13.1315 40.6293C7.38484 58.0466 3.79819 99.4826 2.24219 138.372C11.0569 144.076 48.9102 146.151 60.8355 146.151Z" fill="#CD5C29"/>
<path d="M4.29041 137.236C13.9624 142.085 48.2104 144.151 60.8358 144.151C73.4611 144.151 107.709 142.085 117.381 137.236C115.521 91.8599 111.516 56.0319 106.641 41.2559C99.0598 18.2759 81.5078 4 60.8358 4C40.1638 4 22.6118 18.2759 15.0304 41.2559C10.1558 56.0319 6.15041 91.8599 4.29041 137.236ZM60.8358 148.151C53.5064 148.151 11.3637 146.657 1.15574 140.051C0.56241 139.667 0.215764 138.997 0.243764 138.292C1.1331 116.057 3.98375 61.9719 11.2318 40.0026C19.3718 15.3279 38.3784 0 60.8358 0C83.2931 0 102.3 15.3279 110.44 40.0026C117.688 61.9719 120.538 116.057 121.428 138.292C121.456 138.997 121.109 139.667 120.516 140.051C110.308 146.657 68.1651 148.151 60.8358 148.151Z" fill="#100F0D"/>
<path d="M69.2658 85.4959L69.2791 85.5492C69.2791 89.7892 65.5058 96.9626 60.8391 96.9626C56.1724 96.9626 52.3857 89.7892 52.3857 85.5492L52.4124 85.4959C54.9591 86.3106 57.8258 86.7759 60.8391 86.7759C63.8658 86.7759 66.7191 86.3106 69.2658 85.4959Z" fill="#F8F8F8"/>
<path d="M60.8392 60.9908C71.5059 60.9908 80.1725 66.7641 80.1725 73.8828C80.1725 78.9908 75.7192 83.4028 69.2659 85.4961C66.7192 86.3108 63.8659 86.7761 60.8392 86.7761C57.8259 86.7761 54.9592 86.3108 52.4125 85.4961V85.4841C45.9592 83.4027 41.5059 78.9908 41.5059 73.8828C41.5059 66.7641 50.1592 60.9908 60.8392 60.9908Z" fill="#FDEAB3"/>
<path d="M69.6128 69.1825C69.6128 72.3132 65.6834 76.3278 60.8354 76.3278C55.9874 76.3278 52.0581 72.3132 52.0581 69.1825C52.0581 66.0532 55.9874 64.9945 60.8354 64.9945C65.6834 64.9945 69.6128 66.0532 69.6128 69.1825Z" fill="#100F0D"/>
<path d="M60.5853 68.2001C60.7066 69.0187 59.6013 69.8654 58.1159 70.0894C56.6293 70.3134 55.3226 69.8307 55.1986 69.0121C55.0772 68.1934 56.1812 67.3467 57.6679 67.1227C59.1532 66.8987 60.4613 67.3801 60.5853 68.2001Z" fill="white"/>
<path d="M60.8356 85.4387C50.9103 85.4387 42.8356 80.256 42.8356 73.8827C42.8356 67.5107 50.9103 62.3267 60.8356 62.3267C70.7609 62.3267 78.8356 67.5107 78.8356 73.8827C78.8356 80.256 70.7609 85.4387 60.8356 85.4387ZM61.8356 95.4654V88.0707C63.8996 88.0027 65.8823 87.728 67.7463 87.2707C67.053 90.5894 64.5996 94.6347 61.8356 95.4654ZM53.9249 87.2707C55.7889 87.728 57.7716 88.0027 59.8356 88.0707V95.4654C57.0716 94.6347 54.6183 90.5894 53.9249 87.2707ZM81.5023 73.8827C81.5023 66.0413 72.2316 59.66 60.8356 59.66C49.4396 59.66 40.1689 66.0413 40.1689 73.8827C40.1689 79.3053 44.6023 84.0253 51.1049 86.424C51.5649 91.0227 55.4463 98.3 60.8356 98.3C66.2249 98.3 70.1063 91.0227 70.5663 86.424C77.0689 84.0253 81.5023 79.3053 81.5023 73.8827Z" fill="#100F0D"/>
<path d="M47.9302 75.1252H37.4089C37.0395 75.1252 36.7422 74.8265 36.7422 74.4585C36.7422 74.0905 37.0395 73.7918 37.4089 73.7918H47.9302C48.2995 73.7918 48.5968 74.0905 48.5968 74.4585C48.5968 74.8265 48.2995 75.1252 47.9302 75.1252Z" fill="#100F0D"/>
<path d="M38.0432 83.1706C37.8045 83.1706 37.5725 83.0412 37.4538 82.8145C37.2818 82.4892 37.4085 82.0852 37.7338 81.9145L47.6205 76.7186C47.9445 76.5479 48.3498 76.6733 48.5205 76.9986C48.6925 77.3253 48.5658 77.7279 48.2405 77.8986L38.3538 83.0946L38.0432 83.1706Z" fill="#100F0D"/>
<path d="M47.9298 72.5934L47.6205 72.5161L37.7338 67.3214C37.4085 67.1508 37.2818 66.7468 37.4538 66.4214C37.6245 66.0961 38.0298 65.9721 38.3538 66.1414L48.2405 71.3361C48.5658 71.5068 48.6925 71.9108 48.5205 72.2361C48.4018 72.4628 48.1698 72.5934 47.9298 72.5934Z" fill="#100F0D"/>
<path d="M84.2622 75.1252H73.7409C73.3716 75.1252 73.0742 74.8265 73.0742 74.4585C73.0742 74.0905 73.3716 73.7918 73.7409 73.7918H84.2622C84.6315 73.7918 84.9289 74.0905 84.9289 74.4585C84.9289 74.8265 84.6315 75.1252 84.2622 75.1252Z" fill="#100F0D"/>
<path d="M83.6274 83.1706L83.3168 83.0946L73.4301 77.8986C73.1048 77.7279 72.9781 77.3253 73.1501 76.9986C73.3221 76.6733 73.7261 76.5479 74.0501 76.7186L83.9368 81.9145C84.2621 82.0852 84.3888 82.4892 84.2168 82.8145C84.0981 83.0412 83.8661 83.1706 83.6274 83.1706Z" fill="#100F0D"/>
<path d="M73.7408 72.5934C73.5008 72.5934 73.2688 72.4628 73.1501 72.2361C72.9781 71.9108 73.1048 71.5068 73.4301 71.3361L83.3168 66.1414C83.6408 65.9721 84.0461 66.0961 84.2168 66.4214C84.3888 66.7468 84.2621 67.1508 83.9368 67.3214L74.0501 72.5161L73.7408 72.5934Z" fill="#100F0D"/>
<path d="M37.0859 59.8828C37.0859 63.8122 33.9033 66.9948 29.974 66.9948C26.0473 66.9948 22.8633 63.8122 22.8633 59.8828C22.8633 55.9562 26.0473 52.7722 29.974 52.7722C33.9033 52.7722 37.0859 55.9562 37.0859 59.8828Z" fill="#100F0D"/>
<path d="M29.9743 57.9945C29.9743 59.1598 29.0289 60.1052 27.8636 60.1052C26.6969 60.1052 25.7529 59.1598 25.7529 57.9945C25.7529 56.8292 26.6969 55.8838 27.8636 55.8838C29.0289 55.8838 29.9743 56.8292 29.9743 57.9945Z" fill="white"/>
<path d="M17.7529 44.716C25.3596 45.8414 39.3343 48.5787 48.2703 52.164C51.3916 45.0853 52.0156 36.9574 49.4969 29.352C49.5676 33.624 49.0543 36.8707 48.2156 39.2893C36.753 33.832 25.8836 30.9467 22.0396 30.132C20.1676 33.2587 17.9849 39.848 17.7529 44.716Z" fill="#100F0D"/>
<path d="M98.8062 59.8828C98.8062 63.8122 95.6221 66.9948 91.6941 66.9948C87.7661 66.9948 84.5835 63.8122 84.5835 59.8828C84.5835 55.9562 87.7661 52.7722 91.6941 52.7722C95.6221 52.7722 98.8062 55.9562 98.8062 59.8828Z" fill="#100F0D"/>
<path d="M91.693 57.9945C91.693 59.1598 90.7477 60.1052 89.5824 60.1052C88.417 60.1052 87.4717 59.1598 87.4717 57.9945C87.4717 56.8292 88.417 55.8838 89.5824 55.8838C90.7477 55.8838 91.693 56.8292 91.693 57.9945Z" fill="white"/>
<path d="M103.92 44.716C96.3118 45.8414 82.3371 48.5787 73.4011 52.164C70.2798 45.0853 69.6558 36.9574 72.1745 29.352C72.1038 33.624 72.6171 36.8707 73.4558 39.2893C84.9198 33.832 95.7878 30.9467 99.6318 30.132C101.504 33.2587 103.686 39.848 103.92 44.716Z" fill="#100F0D"/>
<path d="M9.57552 139.74C11.0422 103.064 14.4262 63.9867 19.8449 47.5587C27.1289 25.4827 44.0742 11.1266 64.8355 11.1266C85.5982 11.1266 102.542 25.4827 109.826 47.5587C110.819 50.5707 110.041 45.1774 108.54 40.6294C100.817 17.22 82.8502 2.00008 60.8355 2.00008C38.8208 2.00008 20.8542 17.22 13.1315 40.6294C7.38484 58.0467 3.79819 99.4827 2.24219 138.372C5.33419 140.373 11.6129 141.059 9.57552 139.74Z" fill="#E6894A"/>
<path d="M60.8355 121.883C37.4115 121.883 16.8635 109.356 5.24085 90.5213C3.88485 105.645 2.88752 122.224 2.24219 138.372C11.0569 144.076 48.9102 146.151 60.8355 146.151C72.7608 146.151 110.614 144.076 119.429 138.372C118.784 122.224 117.786 105.645 116.43 90.5213C104.808 109.356 84.2595 121.883 60.8355 121.883Z" fill="#BA4927"/>
</svg>
