<svg width="103" height="50" viewBox="0 0 103 50" fill="none" xmlns="http://www.w3.org/2000/svg">
<mask id="mask0_13_5653" style="mask-type:luminance" maskUnits="userSpaceOnUse" x="0" y="0" width="103" height="50">
<path d="M100.708 40.7254C96.3743 27.5921 88.961 17.0975 79.601 10.1655C71.361 4.07212 61.6143 0.725414 51.1076 0.725414C39.6543 0.725414 29.0943 4.71078 20.4157 11.8988C12.0823 18.8055 5.49432 28.6454 1.50765 40.7254C1.28098 41.4321 1.0543 42.1654 0.827637 42.9254C14.5876 47.2187 34.841 49.9254 57.441 49.9254C74.2143 49.9254 89.7077 48.4321 102.201 45.9121C101.721 44.0321 101.228 42.2987 100.708 40.7254Z" fill="white"/>
</mask>
<g mask="url(#mask0_13_5653)">
<path d="M51.1089 146.873C63.0356 146.873 100.888 144.799 109.702 139.095C108.148 100.205 104.56 58.7694 98.8143 41.3521C91.0902 17.9427 73.1249 2.7227 51.1089 2.7227C29.0956 2.7227 11.1276 17.9427 3.40625 41.3521C-2.34175 58.7694 -5.92704 100.205 -7.48438 139.095C1.33029 144.799 39.1849 146.873 51.1089 146.873Z" fill="#CD5C29"/>
<path d="M-0.151042 140.463C1.31696 103.787 4.6996 64.7093 10.1196 48.2813C17.4036 26.2053 34.3489 11.8493 55.1089 11.8493C75.8716 11.8493 92.817 26.2053 100.101 48.2813C101.093 51.2933 100.314 45.9 98.8143 41.352C91.0903 17.9427 73.1249 2.72266 51.1089 2.72266C29.0956 2.72266 11.1276 17.9427 3.40625 41.352C-2.34175 58.7694 -5.92704 100.205 -7.48438 139.095C-4.39104 141.096 1.88763 141.781 -0.151042 140.463Z" fill="#E6894A"/>
<path d="M-5.435 137.959C4.237 142.808 38.4836 144.873 51.1089 144.873C63.7343 144.873 97.9836 142.808 107.656 137.959C105.794 92.5827 101.789 56.7547 96.9143 41.9787C89.333 18.9987 71.7809 4.7227 51.1089 4.7227C30.437 4.7227 12.885 18.9987 5.30498 41.9787C0.428979 56.7547 -3.57633 92.5827 -5.435 137.959ZM51.1089 148.873C43.7809 148.873 1.63834 147.38 -8.571 140.773C-9.16433 140.389 -9.51101 139.72 -9.48167 139.015C-8.59367 116.78 -5.74302 62.6947 1.50498 40.7254C9.64498 16.0507 28.653 0.722702 51.1089 0.722702C73.5676 0.722702 92.573 16.0507 100.713 40.7254C107.961 62.6947 110.812 116.78 111.702 139.015C111.729 139.72 111.382 140.389 110.789 140.773C100.584 147.38 58.4396 148.873 51.1089 148.873Z" fill="#100F0D"/>
<path d="M8.02631 45.4388C15.633 46.5641 29.609 49.3014 38.5436 52.8868C41.6663 45.8081 42.2889 37.6801 39.7703 30.0748C39.8409 34.3468 39.3276 37.5934 38.4889 40.0121C27.0263 34.5548 16.1583 31.6695 12.3143 30.8548C10.4423 33.9815 8.25964 40.5708 8.02631 45.4388Z" fill="#100F0D"/>
<path d="M94.193 45.4388C86.5864 46.5641 72.6117 49.3014 63.6744 52.8868C60.5544 45.8081 59.929 37.6801 62.4477 30.0748C62.377 34.3468 62.8904 37.5934 63.729 40.0121C75.193 34.5548 86.0623 31.6695 89.9063 30.8548C91.7783 33.9815 93.961 40.5708 94.193 45.4388Z" fill="#100F0D"/>
</g>
</svg>
