<svg width="118" height="115" viewBox="0 0 118 115" fill="none" xmlns="http://www.w3.org/2000/svg">
<mask id="mask0_13_5587" style="mask-type:luminance" maskUnits="userSpaceOnUse" x="0" y="0" width="118" height="115">
<path d="M115.444 79.5453C113.791 63.8786 111.538 49.1586 108.511 40.012C100.364 15.3333 81.3643 -7.62939e-06 58.8977 -7.62939e-06C36.4443 -7.62939e-06 17.4443 15.3333 9.29766 40.012C6.01766 49.972 3.63098 66.532 1.92432 83.732C1.23098 90.772 0.644344 97.932 0.152344 104.772C13.0977 110.865 37.391 114.985 65.231 114.985C85.7776 114.985 104.391 112.745 117.939 109.119C117.324 99.652 116.498 89.412 115.444 79.5453Z" fill="white"/>
</mask>
<g mask="url(#mask0_13_5587)">
<path d="M58.9044 146.155C70.831 146.155 108.683 144.08 117.498 138.376C115.943 99.4867 112.355 58.052 106.61 40.6333C98.8857 17.2253 80.9204 2.00534 58.9044 2.00534C36.891 2.00534 18.923 17.2253 11.2017 40.6333C5.45369 58.052 1.86837 99.4867 0.311035 138.376C9.1257 144.08 46.9804 146.155 58.9044 146.155Z" fill="#CD5C29"/>
<path d="M58.9044 121.888C35.4804 121.888 14.9337 109.36 3.31103 90.5253C1.9537 105.649 0.956368 122.228 0.311035 138.376C9.1257 144.08 46.9804 146.155 58.9044 146.155C70.831 146.155 108.683 144.08 117.498 138.376C116.852 122.228 115.855 105.649 114.5 90.5253C102.876 109.36 82.3284 121.888 58.9044 121.888Z" fill="#BA4927"/>
<path d="M7.64437 139.744C9.11237 103.068 12.495 63.9907 17.915 47.5627C25.199 25.4867 42.1444 11.1307 62.9044 11.1307C83.667 11.1307 100.612 25.4867 107.896 47.5627C108.888 50.5747 108.11 45.1813 106.61 40.6333C98.8857 17.2253 80.9204 2.00534 58.9044 2.00534C36.891 2.00534 18.923 17.2253 11.2017 40.6333C5.45369 58.052 1.86837 99.4867 0.311035 138.376C3.40437 140.377 9.68303 141.063 7.64437 139.744Z" fill="#E6894A"/>
<path d="M2.36035 137.24C12.0324 142.089 46.279 144.155 58.9044 144.155C71.5297 144.155 105.779 142.089 115.451 137.24C113.59 91.864 109.584 56.036 104.71 41.26C97.1284 18.2813 79.5764 4.00534 58.9044 4.00534C38.2324 4.00534 20.6804 18.2813 13.1004 41.26C8.22436 56.036 4.21902 91.864 2.36035 137.24ZM58.9044 148.155C51.5764 148.155 9.43368 146.661 -0.77565 140.056C-1.36898 139.672 -1.71563 139.003 -1.68629 138.296C-0.798295 116.061 2.05236 61.976 9.30036 40.0066C17.4404 15.3333 36.4484 0.00534058 58.9044 0.00534058C81.363 0.00534058 100.368 15.3333 108.508 40.0066C115.756 61.976 118.607 116.061 119.498 138.296C119.524 139.003 119.178 139.672 118.584 140.056C108.378 146.661 66.235 148.155 58.9044 148.155Z" fill="#100F0D"/>
<path d="M67.3363 85.5013L67.3497 85.5546C67.3497 89.7933 63.5763 96.9666 58.9097 96.9666C54.243 96.9666 50.4563 89.7933 50.4563 85.5546L50.483 85.5013C53.0297 86.3146 55.8963 86.7813 58.9097 86.7813C61.935 86.7813 64.7897 86.3146 67.3363 85.5013Z" fill="#F8F8F8"/>
<path d="M58.9097 60.9947C69.5763 60.9947 78.243 66.768 78.243 73.888C78.243 78.9947 73.7896 83.4067 67.3363 85.5013C64.7896 86.3147 61.935 86.7813 58.9097 86.7813C55.8963 86.7813 53.0297 86.3147 50.483 85.5013V85.488C44.0297 83.4067 39.5763 78.9947 39.5763 73.888C39.5763 66.768 48.2297 60.9947 58.9097 60.9947Z" fill="#FDEAB3"/>
<path d="M67.683 69.1867C67.683 72.3173 63.7537 76.3333 58.9043 76.3333C54.0577 76.3333 50.1283 72.3173 50.1283 69.1867C50.1283 66.0587 54.0577 65 58.9043 65C63.7537 65 67.683 66.0587 67.683 69.1867Z" fill="#100F0D"/>
<path d="M58.655 68.204C58.7764 69.0227 57.6697 69.8693 56.1857 70.0933C54.699 70.3173 53.391 69.836 53.2684 69.016C53.147 68.1973 54.251 67.3507 55.7377 67.1267C57.2217 66.9027 58.5297 67.3853 58.655 68.204Z" fill="white"/>
<path d="M58.9043 85.444C48.9803 85.444 40.9043 80.26 40.9043 73.888C40.9043 67.5146 48.9803 62.332 58.9043 62.332C68.831 62.332 76.9043 67.5146 76.9043 73.888C76.9043 80.26 68.831 85.444 58.9043 85.444ZM59.9043 95.4693V88.0746C61.9697 88.0066 63.951 87.732 65.8163 87.276C65.123 90.5933 62.6697 94.6387 59.9043 95.4693ZM51.995 87.276C53.8577 87.732 55.8417 88.0066 57.9043 88.0746V95.4693C55.1417 94.6387 52.6883 90.5933 51.995 87.276ZM79.571 73.888C79.571 66.0453 70.3003 59.6653 58.9043 59.6653C47.5083 59.6653 38.2377 66.0453 38.2377 73.888C38.2377 79.3093 42.6723 84.0293 49.175 86.428C49.6337 91.0266 53.5163 98.304 58.9043 98.304C64.295 98.304 68.175 91.0266 68.6363 86.428C75.139 84.0293 79.571 79.3093 79.571 73.888Z" fill="#100F0D"/>
<path d="M46.0004 75.1293H35.4777C35.1097 75.1293 34.811 74.832 34.811 74.4626C34.811 74.0946 35.1097 73.796 35.4777 73.796H46.0004C46.3684 73.796 46.667 74.0946 46.667 74.4626C46.667 74.832 46.3684 75.1293 46.0004 75.1293Z" fill="#100F0D"/>
<path d="M36.1124 83.1747C35.8737 83.1747 35.6417 83.0453 35.5243 82.8187C35.3523 82.4933 35.4777 82.0893 35.803 81.9187L45.691 76.724C46.0137 76.5533 46.4203 76.6773 46.5897 77.004C46.7617 77.3293 46.6364 77.732 46.311 77.9027L36.423 83.0987L36.1124 83.1747Z" fill="#100F0D"/>
<path d="M46.0003 72.5973L45.691 72.52L35.803 67.3253C35.4777 67.1546 35.3523 66.7506 35.5243 66.4253C35.6937 66.1 36.1003 65.976 36.423 66.1453L46.311 71.34C46.6364 71.5106 46.7617 71.9146 46.5897 72.24C46.4723 72.4666 46.2403 72.5973 46.0003 72.5973Z" fill="#100F0D"/>
<path d="M82.331 75.1293H71.811C71.4404 75.1293 71.1444 74.832 71.1444 74.4626C71.1444 74.0946 71.4404 73.796 71.811 73.796H82.331C82.7017 73.796 82.9977 74.0946 82.9977 74.4626C82.9977 74.832 82.7017 75.1293 82.331 75.1293Z" fill="#100F0D"/>
<path d="M81.6963 83.1747L81.3857 83.0987L71.5003 77.9027C71.175 77.732 71.047 77.3293 71.219 77.004C71.391 76.6773 71.795 76.5533 72.1203 76.724L82.0057 81.9187C82.331 82.0893 82.459 82.4933 82.287 82.8187C82.167 83.0453 81.935 83.1747 81.6963 83.1747Z" fill="#100F0D"/>
<path d="M71.811 72.5973C71.571 72.5973 71.339 72.4666 71.219 72.24C71.047 71.9146 71.175 71.5106 71.5003 71.34L81.3857 66.1453C81.711 65.976 82.115 66.1 82.287 66.4253C82.459 66.7506 82.331 67.1546 82.0057 67.3253L72.1203 72.52L71.811 72.5973Z" fill="#100F0D"/>
<path d="M35.1563 59.888C35.1563 63.816 31.9724 67 28.0444 67C24.1177 67 20.9337 63.816 20.9337 59.888C20.9337 55.96 24.1177 52.7773 28.0444 52.7773C31.9724 52.7773 35.1563 55.96 35.1563 59.888Z" fill="#100F0D"/>
<path d="M28.043 58C28.043 59.1653 27.0977 60.1107 25.9337 60.1107C24.767 60.1107 23.8217 59.1653 23.8217 58C23.8217 56.8347 24.767 55.8893 25.9337 55.8893C27.0977 55.8893 28.043 56.8347 28.043 58Z" fill="white"/>
<path d="M15.8217 44.7213C23.4284 45.8453 37.4043 48.5827 46.339 52.1693C49.4617 45.0893 50.0843 36.9613 47.5657 29.356C47.6363 33.628 47.123 36.8747 46.2843 39.2933C34.8217 33.8373 23.9537 30.9507 20.1097 30.136C18.2377 33.2627 16.055 39.852 15.8217 44.7213Z" fill="#100F0D"/>
<path d="M96.8763 59.888C96.8763 63.816 93.691 67 89.7643 67C85.8363 67 82.6523 63.816 82.6523 59.888C82.6523 55.96 85.8363 52.7773 89.7643 52.7773C93.691 52.7773 96.8763 55.96 96.8763 59.888Z" fill="#100F0D"/>
<path d="M89.7617 58C89.7617 59.1653 88.8164 60.1107 87.6524 60.1107C86.4858 60.1107 85.5404 59.1653 85.5404 58C85.5404 56.8347 86.4858 55.8893 87.6524 55.8893C88.8164 55.8893 89.7617 56.8347 89.7617 58Z" fill="white"/>
<path d="M101.988 44.7213C94.3804 45.8453 80.407 48.5827 71.4697 52.1693C68.3497 45.0893 67.7244 36.9613 70.243 29.356C70.1724 33.628 70.6857 36.8747 71.5243 39.2933C82.9883 33.8373 93.8577 30.9507 97.7017 30.136C99.5737 33.2627 101.756 39.852 101.988 44.7213Z" fill="#100F0D"/>
</g>
</svg>
