<svg width="24" height="24" viewBox="0 0 24 24" fill="none" xmlns="http://www.w3.org/2000/svg">
<path d="M20.7651 12.1783C20.7651 13.4884 20.4222 14.7457 19.7979 15.8403L18.6505 14.6929C19.0198 13.9192 19.2176 13.0619 19.2176 12.1739C19.2176 9.83508 17.8372 7.7161 15.6919 6.76211C15.4105 6.63902 15.2302 6.35766 15.2302 6.05871C15.2302 5.79494 15.3577 5.55315 15.5819 5.40807C15.8018 5.26739 16.0743 5.24101 16.3161 5.35092C19.0198 6.5467 20.7695 9.22401 20.7695 12.1739L20.7651 12.1783Z" fill="#27416D"/>
<path d="M17.635 12.1871C17.635 12.6311 17.5559 13.0575 17.4064 13.4488L15.2302 11.2726V8.77557C16.6326 9.27235 17.635 10.6132 17.635 12.1871Z" fill="#27416D"/>
<path d="M13.3794 4.44965V9.42179L9.96355 6.00592L12.5398 4.032C12.8827 3.77263 13.3794 4.01442 13.3794 4.44965Z" fill="#27416D"/>
<path d="M5.02666 8.42828L13.3795 16.7855V20.0256C13.3795 20.4608 12.8827 20.707 12.5398 20.4432L6.79834 16.0514H4.09905C3.49237 16.0514 2.99999 15.559 2.99999 14.9523V9.52734C2.99999 8.92066 3.48797 8.42828 4.09905 8.42828H5.02226H5.02666Z" fill="#27416D"/>
<g filter="url(#filter0_i_2_461)">
<path d="M20.7651 21.3576C20.5409 21.3576 20.3211 21.2741 20.1497 21.1026L3.5275 4.48043C3.18899 4.14192 3.18899 3.59239 3.5275 3.25388C3.86601 2.91537 4.41554 2.91537 4.75405 3.25388L21.3762 19.8761C21.7147 20.2146 21.7147 20.7641 21.3762 21.1026C21.2048 21.2741 20.985 21.3576 20.7607 21.3576H20.7651Z" fill="#32579F"/>
</g>
<path d="M19.7961 21.4562C20.0641 21.7241 20.411 21.8565 20.7607 21.8576H20.7651C21.1149 21.8565 21.4618 21.7241 21.7298 21.4562C22.2635 20.9224 22.2635 20.0563 21.7298 19.5225L5.1076 2.90033C4.57383 2.36656 3.70771 2.36656 3.17394 2.90033C2.64017 3.4341 2.64017 4.30021 3.17394 4.83399L19.7961 21.4562Z" stroke="white"/>
<defs>
<filter id="filter0_i_2_461" x="2.27361" y="2" width="20.3565" height="24.3576" filterUnits="userSpaceOnUse" color-interpolation-filters="sRGB">
<feFlood flood-opacity="0" result="BackgroundImageFix"/>
<feBlend mode="normal" in="SourceGraphic" in2="BackgroundImageFix" result="shape"/>
<feColorMatrix in="SourceAlpha" type="matrix" values="0 0 0 0 0 0 0 0 0 0 0 0 0 0 0 0 0 0 127 0" result="hardAlpha"/>
<feOffset dy="4"/>
<feGaussianBlur stdDeviation="2"/>
<feComposite in2="hardAlpha" operator="arithmetic" k2="-1" k3="1"/>
<feColorMatrix type="matrix" values="0 0 0 0 0 0 0 0 0 0 0 0 0 0 0 0 0 0 0.25 0"/>
<feBlend mode="normal" in2="shape" result="effect1_innerShadow_2_461"/>
</filter>
</defs>
</svg>
