<svg width="24" height="24" viewBox="0 0 24 24" fill="none" xmlns="http://www.w3.org/2000/svg">
<rect x="0.5" y="0.5" width="23" height="23"/>
<path d="M15.5728 17.6118C15.2718 17.7435 15.0743 18.0444 15.0743 18.3689C15.0743 18.6511 15.2153 18.9098 15.4505 19.0603C15.5869 19.1496 15.7421 19.1967 15.902 19.1967C16.0149 19.1967 16.1277 19.1732 16.2359 19.1261C19.1282 17.8469 21 14.9828 21 11.8271C21 8.67142 19.1282 5.80731 16.2359 4.52811C15.9819 4.41523 15.6856 4.43875 15.4552 4.58924C15.22 4.74444 15.079 5.00311 15.079 5.28528C15.079 5.60979 15.2718 5.90608 15.5775 6.04246C17.8678 7.0583 19.3493 9.32984 19.3493 11.8271C19.3493 14.3244 17.8678 16.5959 15.5775 17.6118H15.5728Z" fill="white"/>
<path d="M17.6515 11.8365C17.6515 13.5201 16.5792 14.9499 15.079 15.4813V8.18698C16.5792 8.71842 17.6515 10.1528 17.6515 11.8365V11.8365Z" fill="white"/>
<g filter="url(#filter0_i_2_439)">
<path d="M12.2007 3.1172L6.06337 7.81547H3.17574C2.52673 7.81547 2 8.3422 2 8.99121V14.7994C2 15.4484 2.52673 15.9751 3.17574 15.9751H6.06337L12.2007 20.6734C12.5676 20.9556 13.099 20.6922 13.099 20.2313V3.55928C13.099 3.09369 12.5676 2.83503 12.2007 3.1172Z" fill="#32579F"/>
</g>
<path d="M11.8959 2.72089L5.89396 7.31547H3.17574C2.25059 7.31547 1.5 8.06606 1.5 8.99121V14.7994C1.5 15.7245 2.25059 16.4751 3.17574 16.4751H5.89396L11.8959 21.0697C11.8961 21.0698 11.8963 21.07 11.8965 21.0701C12.5931 21.6053 13.599 21.1056 13.599 20.2313V3.55928C13.599 2.67634 12.5899 2.18773 11.8965 2.72046C11.8963 2.7206 11.8961 2.72075 11.8959 2.72089Z" stroke="white"/>
<defs>
<filter id="filter0_i_2_439" x="1" y="1.99866" width="13.099" height="23.7932" filterUnits="userSpaceOnUse" color-interpolation-filters="sRGB">
<feFlood flood-opacity="0" result="BackgroundImageFix"/>
<feBlend mode="normal" in="SourceGraphic" in2="BackgroundImageFix" result="shape"/>
<feColorMatrix in="SourceAlpha" type="matrix" values="0 0 0 0 0 0 0 0 0 0 0 0 0 0 0 0 0 0 127 0" result="hardAlpha"/>
<feOffset dy="4"/>
<feGaussianBlur stdDeviation="2"/>
<feComposite in2="hardAlpha" operator="arithmetic" k2="-1" k3="1"/>
<feColorMatrix type="matrix" values="0 0 0 0 0 0 0 0 0 0 0 0 0 0 0 0 0 0 0.25 0"/>
<feBlend mode="normal" in2="shape" result="effect1_innerShadow_2_439"/>
</filter>
</defs>
</svg>
