<svg width="70" height="70" viewBox="0 0 69 68" fill="none" xmlns="http://www.w3.org/2000/svg">
<path d="M34.5 68C15.752 68 0.5 52.748 0.5 33.9987C0.5 15.252 15.752 0 34.5 0C53.2466 0 68.5 15.252 68.5 33.9987C68.5 52.748 53.2466 68 34.5 68Z" fill="white"/>
<path d="M34.5 64C17.9573 64 4.5 50.5414 4.5 33.9987C4.5 17.4574 17.9573 4 34.5 4C51.0413 4 64.5 17.4574 64.5 33.9987C64.5 50.5414 51.0413 64 34.5 64Z" fill="#100F0D"/>
<path d="M61.1253 33.9987C61.1253 48.7054 49.2039 60.6267 34.5 60.6267C19.7946 60.6267 7.87329 48.7054 7.87329 33.9987C7.87329 19.2947 19.7946 7.37202 34.5 7.37202C49.2039 7.37202 61.1253 19.2947 61.1253 33.9987Z" fill="#F0EF1B"/>
<path d="M54.7454 33.9987C54.7454 45.1827 45.6814 54.2467 34.5 54.2467C23.3174 54.2467 14.2507 45.1827 14.2507 33.9987C14.2507 22.8187 23.3174 13.7533 34.5 13.7533C45.6814 13.7533 54.7454 22.8187 54.7454 33.9987Z" fill="#F68718"/>
<path d="M54.3358 33.9988C54.3358 44.5455 45.4545 53.0922 34.4998 53.0922C23.5451 53.0922 14.6638 44.5455 14.6638 33.9988C14.6638 23.4548 23.5451 14.9067 34.4998 14.9067C45.4545 14.9067 54.3358 23.4548 54.3358 33.9988Z" fill="#F9D80E"/>
<path d="M35.7147 18.1761L40.1533 27.1787L42.5733 27.5295L42.624 27.54L50.0919 28.6255C51.4266 28.8135 51.736 29.7228 50.816 30.6708L50.7773 30.7201L45.3666 35.9814L45.3173 36.0321L43.584 37.7281L44.008 40.1841L45.2787 47.6161C45.5173 48.9748 44.7053 49.5614 43.496 48.912L36.812 45.4094L34.6053 44.2507L32.3973 45.4094L25.7266 48.912C24.544 49.5374 23.7573 49.012 23.9186 47.74L25.2173 40.1841L25.64 37.7281L23.8453 35.9814L18.4453 30.7201L18.4066 30.6708C17.472 29.7228 17.796 28.8135 19.1293 28.6255L26.5987 27.54L26.636 27.5295L29.0693 27.1787L30.1666 24.9347L33.508 18.1761C34.0693 17.0161 34.98 16.9415 35.604 17.9641L35.7147 18.1761Z" fill="#F68718"/>
<path d="M35.7147 17.1628L40.1533 26.1654L42.5733 26.5148L42.624 26.5281L50.0919 27.6121C51.4266 27.7987 51.736 28.7095 50.816 29.6588L50.7773 29.7082L45.3666 34.9695L45.3173 35.0188L43.584 36.7148L44.008 39.1708L45.2787 46.6028C45.5173 47.9628 44.7053 48.5481 43.496 47.9001L36.812 44.3962L34.6053 43.2374L32.3973 44.3962L25.7266 47.9001C24.544 48.5227 23.7573 48.0001 23.9186 46.7281L25.2173 39.1708L25.64 36.7148L23.8453 34.9695L18.4453 29.7082L18.4066 29.6588C17.472 28.7095 17.796 27.7987 19.1293 27.6121L26.5987 26.5281L26.636 26.5148L29.0693 26.1654L30.1666 23.9214L33.508 17.1628C34.0693 16.0042 34.98 15.9281 35.604 16.9507L35.7147 17.1628Z" fill="#F0EF1B"/>
<path d="M50.0919 27.6121L42.624 26.5281L42.5733 26.5148L40.1533 26.1654L36.6373 19.0374L35.6986 17.1334L35.604 16.9507C34.98 15.9281 34.0693 16.0042 33.508 17.1628L32.0053 20.2014L29.8427 24.5868L29.0693 26.1654L26.9413 26.4721L26.632 26.5161L26.5986 26.5281L19.1293 27.6121C18.208 27.7414 17.7826 28.2201 17.9079 28.8148C21.8373 30.9895 27.784 32.3934 34.4906 32.3934C41.348 32.3934 47.4173 30.9307 51.3386 28.668C51.3693 28.1427 50.9399 27.7307 50.0919 27.6121Z" fill="#FBFAB2"/>
<path d="M8.76131 35.4787C8.76131 20.7733 20.68 8.85068 35.3853 8.85068C44.796 8.85068 53.06 13.7388 57.796 21.1081C53.2533 12.9188 44.5253 7.37203 34.5 7.37203C19.7946 7.37203 7.87329 19.2947 7.87329 33.9987C7.87329 39.2947 9.42664 44.2241 12.0906 48.3707C9.97197 44.5507 8.76131 40.1573 8.76131 35.4787Z" fill="#FBFAB2"/>
<path d="M33.716 57.372C48.42 57.372 60.3413 45.4507 60.3413 30.744C60.3413 29.6667 60.2693 28.6081 60.1453 27.5641C60.6573 29.6267 60.932 31.7801 60.932 33.9987C60.932 48.7054 49.0106 60.6267 34.3053 60.6267C20.6786 60.6267 9.44662 50.384 7.87329 37.1787C10.7533 48.776 21.2293 57.372 33.716 57.372Z" fill="#F9D80E"/>
</svg>
