<svg width="122" height="176" viewBox="0 0 122 176" fill="none" xmlns="http://www.w3.org/2000/svg">
<path d="M60.9046 173.777C72.8299 173.777 110.683 171.729 119.499 166.093C117.942 127.671 114.355 86.7347 108.609 69.5267C100.887 46.3987 82.9179 31.3614 60.9046 31.3614C38.8899 31.3614 20.9235 46.3987 13.1995 69.5267C7.45472 86.7347 3.86619 127.671 2.31152 166.093C11.1266 171.729 48.9779 173.777 60.9046 173.777Z" fill="#CD5C29"/>
<path d="M60.9046 149.804C37.4806 149.804 16.9339 137.427 5.30899 118.817C3.95473 133.76 2.95739 150.14 2.31152 166.093C11.1266 171.729 48.9779 173.777 60.9046 173.777C72.8299 173.777 110.683 171.729 119.499 166.093C118.853 150.14 117.855 133.76 116.499 118.817C104.877 137.427 84.3299 149.804 60.9046 149.804Z" fill="#BA4927"/>
<path d="M9.64486 167.445C11.111 131.209 14.4965 92.6014 19.9131 76.3734C27.197 54.5614 44.1419 40.3774 64.9046 40.3774C85.6686 40.3774 102.611 54.5614 109.895 76.3734C110.89 79.3481 110.111 74.0201 108.609 69.5267C100.887 46.3987 82.9179 31.3614 60.9046 31.3614C38.8899 31.3614 20.9235 46.3987 13.1995 69.5267C7.45472 86.7347 3.86619 127.671 2.31152 166.093C5.40272 168.071 11.6814 168.749 9.64486 167.445Z" fill="#E6894A"/>
<path d="M4.35885 164.972C14.0307 169.763 48.281 171.803 60.905 171.803C73.5303 171.803 107.778 169.763 117.45 164.972C115.59 120.141 111.585 84.7441 106.71 70.1454C99.129 47.4414 81.577 33.3374 60.905 33.3374C40.2343 33.3374 22.6818 47.4414 15.101 70.1454C10.226 84.7441 6.22085 120.141 4.35885 164.972ZM60.905 175.755C53.5743 175.755 11.4318 174.279 1.22605 167.753C0.632316 167.373 0.285914 166.712 0.311914 166.015C1.20258 144.047 4.05418 90.6121 11.3015 68.9081C19.4422 44.5294 38.4476 29.3854 60.905 29.3854C83.361 29.3854 102.369 44.5294 110.51 68.9081C117.757 90.6121 120.609 144.047 121.497 166.015C121.525 166.712 121.18 167.373 120.585 167.753C110.377 174.279 68.2343 175.755 60.905 175.755Z" fill="#100F0D"/>
<path d="M19.5513 85.0906C26.7179 83.444 44.7181 78.1747 50.6141 70.5414C49.2181 65.1654 46.3847 60.72 42.0514 57.3733C43.8847 60.0613 44.3981 61.516 45.3847 63.8493C40.1661 67.54 29.1634 70.3266 18.0513 70.7653C17.5513 75.0453 18.0513 80.316 19.5513 85.0906Z" fill="#100F0D"/>
<path d="M44.6939 90.1959C44.6939 96.4839 39.5352 101.58 33.1712 101.58C26.8062 101.58 21.6475 96.4839 21.6475 90.1959C21.6475 83.9079 26.8062 78.8119 33.1712 78.8119C39.5352 78.8119 44.6939 83.9079 44.6939 90.1959Z" fill="#100F0D"/>
<path d="M41.4859 90.1962C41.4859 94.7322 37.7619 98.4109 33.1712 98.4109C28.5792 98.4109 24.8584 94.7322 24.8584 90.1962C24.8584 85.6589 28.5792 81.9816 33.1712 81.9816C37.7619 81.9816 41.4859 85.6589 41.4859 90.1962Z" fill="white"/>
<path d="M102.26 85.0906C95.093 83.444 77.093 78.1747 71.1943 70.5414C72.593 65.1654 75.4263 60.72 79.757 57.3733C77.9263 60.0613 77.413 61.516 76.4263 63.8493C81.645 67.54 92.6477 70.3266 103.757 70.7653C104.26 75.0453 103.76 80.316 102.26 85.0906Z" fill="#100F0D"/>
<path d="M77.1167 90.1959C77.1167 96.4839 82.2754 101.58 88.6394 101.58C95.002 101.58 100.161 96.4839 100.161 90.1959C100.161 83.9079 95.002 78.8119 88.6394 78.8119C82.2754 78.8119 77.1167 83.9079 77.1167 90.1959Z" fill="#100F0D"/>
<path d="M80.3247 90.1962C80.3247 94.7322 84.046 98.4109 88.6394 98.4109C93.2314 98.4109 96.9527 94.7322 96.9527 90.1962C96.9527 85.6589 93.2314 81.9816 88.6394 81.9816C84.046 81.9816 80.3247 85.6589 80.3247 90.1962Z" fill="white"/>
<path d="M60.9105 142.401C72.1225 142.401 81.1225 146.011 87.2838 154.085C79.9505 152.768 66.9505 152.439 60.9105 152.439C54.8558 152.439 41.8558 152.768 34.5225 154.085C40.6971 146.011 49.6971 142.401 60.9105 142.401Z" fill="#EE252E"/>
<path d="M78.2838 108.308C80.1611 116.287 84.9505 142.888 87.2838 154.085C81.1225 146.011 72.1225 142.401 60.9105 142.401C49.6971 142.401 40.6971 146.011 34.5225 154.085C36.8558 142.888 41.3878 116.523 43.5225 108.308L43.6971 108.176C46.8958 112.3 53.4025 115.119 60.9105 115.119C68.4025 115.119 74.9105 112.3 78.1225 108.189L78.2838 108.308Z" fill="#461C1E"/>
<path d="M37.3382 152.333C42.9995 146.396 50.9048 143.381 60.9048 143.381C70.9022 143.381 78.8115 146.396 84.4702 152.333C77.0169 151.391 66.5222 151.121 60.9048 151.121C55.2862 151.121 44.7928 151.391 37.3382 152.333ZM44.0768 110.571C47.9128 114.225 54.1395 116.431 60.9048 116.431C67.6688 116.431 73.8955 114.225 77.7342 110.572C79.0795 117.355 82.8715 140.449 85.0542 150.103C79.0875 144.336 70.9915 141.407 60.9048 141.407C50.8168 141.407 42.7235 144.336 36.7542 150.103C38.6262 140.597 42.4675 117.355 44.0768 110.571ZM88.5902 153.82C86.0408 141.587 81.4808 115.337 79.5222 107.819C79.4555 107.551 79.2315 107.377 79.0142 107.235L78.9315 107.141C78.3462 106.695 77.5102 106.804 77.0622 107.38C73.9782 111.339 67.7888 113.797 60.9048 113.797C54.0168 113.797 47.8248 111.336 44.7435 107.375C44.2955 106.8 43.4595 106.689 42.8742 107.133L42.7675 107.253C42.5649 107.395 42.3555 107.564 42.2862 107.819C40.1862 115.457 35.7729 141.572 33.2182 153.82C33.1289 154.249 33.2622 154.693 33.5715 155.007C33.8795 155.32 34.3248 155.464 34.7622 155.38C41.9048 154.097 54.5568 153.757 60.9048 153.757C67.2542 153.757 79.9022 154.097 87.0462 155.38L87.2862 155.403C87.6395 155.403 87.9862 155.263 88.2382 155.007C88.5488 154.693 88.6808 154.249 88.5902 153.82Z" fill="#100F0D"/>
<path d="M69.3356 113.853L69.3476 113.907C69.3476 118.096 65.5742 125.183 60.9076 125.183C56.2409 125.183 52.4556 118.096 52.4556 113.907L52.4809 113.853C55.0276 114.657 57.8956 115.119 60.9076 115.119C63.9369 115.119 66.7889 114.657 69.3356 113.853Z" fill="#F8F8F8"/>
<path d="M60.9076 89.6427C71.5742 89.6427 80.2409 95.3454 80.2409 102.38C80.2409 107.427 75.7889 111.785 69.3356 113.853C66.7889 114.657 63.9369 115.119 60.9076 115.119C57.8956 115.119 55.0276 114.657 52.4809 113.853V113.841C46.0276 111.785 41.5742 107.427 41.5742 102.38C41.5742 95.3454 50.2289 89.6427 60.9076 89.6427Z" fill="#FDEAB3"/>
<path d="M69.6806 97.7362C69.6806 100.828 65.7513 104.796 60.9046 104.796C56.0566 104.796 52.126 100.828 52.126 97.7362C52.126 94.6456 56.0566 93.5989 60.9046 93.5989C65.7513 93.5989 69.6806 94.6456 69.6806 97.7362Z" fill="#100F0D"/>
<path d="M60.6529 96.7642C60.7756 97.5749 59.6716 98.4109 58.1836 98.6322C56.6969 98.8535 55.3929 98.3762 55.2676 97.5682C55.1449 96.7589 56.2489 95.9229 57.7356 95.7015C59.2236 95.4802 60.5303 95.9562 60.6529 96.7642Z" fill="white"/>
<path d="M60.9049 113.797C50.9783 113.797 42.9049 108.676 42.9049 102.38C42.9049 96.0854 50.9783 90.9627 60.9049 90.9627C70.8303 90.9627 78.9049 96.0854 78.9049 102.38C78.9049 108.676 70.8303 113.797 60.9049 113.797ZM61.9049 123.703V116.397C63.9676 116.329 65.953 116.059 67.8143 115.607C67.1223 118.884 64.6689 122.881 61.9049 123.703ZM53.9943 115.607C55.8583 116.059 57.8409 116.329 59.9049 116.397V123.703C57.1396 122.881 54.6863 118.884 53.9943 115.607ZM81.5716 102.38C81.5716 94.632 72.3009 88.3281 60.9049 88.3281C49.5103 88.3281 40.2383 94.632 40.2383 102.38C40.2383 107.737 44.6716 112.4 51.1743 114.769C51.6343 119.315 55.5143 126.503 60.9049 126.503C66.2929 126.503 70.177 119.315 70.6343 114.769C77.137 112.4 81.5716 107.737 81.5716 102.38Z" fill="#100F0D"/>
<path d="M47.9995 103.607H37.4782C37.1089 103.607 36.8115 103.313 36.8115 102.948C36.8115 102.585 37.1089 102.291 37.4782 102.291H47.9995C48.3689 102.291 48.6662 102.585 48.6662 102.948C48.6662 103.313 48.3689 103.607 47.9995 103.607Z" fill="#100F0D"/>
<path d="M38.1139 111.556C37.8739 111.556 37.6419 111.428 37.5219 111.204C37.3499 110.881 37.4779 110.484 37.8032 110.316L47.6886 105.181C48.0139 105.013 48.4179 105.137 48.5899 105.459C48.7619 105.78 48.6339 106.179 48.3086 106.348L38.4232 111.481L38.1139 111.556Z" fill="#100F0D"/>
<path d="M47.9992 101.105L47.6886 101.029L37.8032 95.8959C37.4779 95.7279 37.3499 95.3293 37.5219 95.008C37.6939 94.6866 38.1006 94.5639 38.4232 94.7306L48.3086 99.8639C48.6339 100.033 48.7619 100.431 48.5899 100.753C48.4699 100.977 48.2379 101.105 47.9992 101.105Z" fill="#100F0D"/>
<path d="M84.3328 103.607H73.8088C73.4421 103.607 73.1421 103.313 73.1421 102.948C73.1421 102.585 73.4421 102.291 73.8088 102.291H84.3328C84.6994 102.291 84.9994 102.585 84.9994 102.948C84.9994 103.313 84.6994 103.607 84.3328 103.607Z" fill="#100F0D"/>
<path d="M83.6967 111.556L83.3874 111.481L73.4994 106.348C73.174 106.179 73.0487 105.78 73.2207 105.459C73.3927 105.137 73.7954 105.013 74.1194 105.181L84.0074 110.316C84.3327 110.484 84.4567 110.881 84.2861 111.204C84.1687 111.428 83.9367 111.556 83.6967 111.556Z" fill="#100F0D"/>
<path d="M73.8087 101.105C73.5687 101.105 73.3381 100.977 73.2207 100.753C73.0487 100.431 73.174 100.033 73.4994 99.8639L83.3874 94.7306C83.7101 94.5639 84.1167 94.6866 84.2861 95.008C84.4567 95.3293 84.3327 95.7279 84.0074 95.8959L74.1194 101.029L73.8087 101.105Z" fill="#100F0D"/>
<path d="M33.8034 32.5936C32.4434 32.5936 28.9074 30.2055 27.3925 29.1348C25.4794 30.3082 21.7633 32.5042 20.757 32.5042C20.4862 32.5042 20.2373 32.3762 20.0731 32.1549C19.5679 31.4722 19.9654 28.9576 21.2545 24.6776C19.1201 23.0976 15.9731 20.5349 15.9731 19.1656C15.9731 18.2482 16.7919 17.3989 22.7335 17.3989C23.0887 17.3989 23.395 17.4028 23.6294 17.4068C26.1581 10.6682 27.0054 10.6682 27.4185 10.6682C27.831 10.6682 28.6794 10.6682 31.2154 17.4269C38.8634 17.6042 38.8634 18.6162 38.8634 19.1656C38.8634 19.9802 37.0847 21.8268 33.5741 24.6575C35.5474 31.3122 34.7994 32.0602 34.5514 32.3096C34.4221 32.4376 34.1874 32.5922 33.8034 32.5936Z" fill="#F8ED1C"/>
<path d="M33.1569 24.1387C32.9462 24.3094 32.8582 24.5893 32.9356 24.848C34.7436 30.9453 34.1529 31.7641 34.0796 31.8374C34.0222 31.8947 33.9262 31.9267 33.8022 31.9267C33.0102 31.9254 30.6449 30.6147 27.7765 28.5907C27.6618 28.508 27.528 28.468 27.3926 28.468C27.2713 28.468 27.1514 28.5 27.0436 28.5667C22.8337 31.1494 21.1113 31.8374 20.7572 31.8374L20.6113 31.7614C20.555 31.6747 20.1217 30.7507 21.8926 24.8707C21.9744 24.6001 21.8769 24.3093 21.6514 24.1413C17.9525 21.404 16.64 19.7507 16.64 19.1654C16.64 18.7547 17.4317 18.0654 22.7337 18.0654C23.0853 18.0654 23.3874 18.0694 23.6176 18.0734C23.8874 18.0534 24.1541 17.904 24.253 17.6413C26.4509 11.7867 27.2832 11.364 27.4656 11.3347C27.5541 11.364 28.3889 11.7881 30.5916 17.6601C30.6862 17.9161 30.9276 18.0867 31.1996 18.0934C37.5489 18.2414 38.1476 18.9814 38.1969 19.1601C38.1822 19.3241 37.8676 20.3387 33.1569 24.1387ZM39.5302 19.1654C39.5302 17.7627 38.2649 16.9574 31.6796 16.7707C29.3022 10.5187 28.3422 10.0013 27.4186 10.0013C26.4978 10.0013 25.5384 10.5174 23.1713 16.7334C23.0358 16.7334 22.89 16.7321 22.7337 16.7321C17.3197 16.7321 15.3066 17.3921 15.3066 19.1654C15.3066 19.6347 15.3066 21.0387 20.4822 24.9321C18.8326 30.5241 19.0749 31.9267 19.5384 32.552C19.8285 32.9453 20.2738 33.1707 20.7572 33.1707C21.0785 33.1707 22.0421 33.1706 27.3676 29.9306C29.6276 31.5053 32.4502 33.2601 33.8036 33.2601H33.8062C34.4169 33.2574 34.8049 32.9973 35.0222 32.78C35.4596 32.3427 36.2662 31.5387 34.3396 24.896C38.9036 21.1787 39.5302 19.9121 39.5302 19.1654Z" fill="#C7901A"/>
<path d="M27.4272 13.6815C26.9028 13.6815 25.7205 17.2509 25.2214 18.6629C23.559 19.0789 19.5105 18.7868 19.1657 19.5362C18.8116 20.3055 23.7058 21.8482 26.1981 22.0295C30.526 22.3442 35.862 20.7375 35.746 19.6482C35.6886 19.1122 30.934 19.0402 29.646 18.7868C29.022 16.6295 28.1746 13.6815 27.4272 13.6815Z" fill="white"/>
<path d="M100.915 54.3709C99.5542 54.3709 96.0195 51.9829 94.5035 50.9123C92.5902 52.0856 88.8742 54.2816 87.8675 54.2816C87.5968 54.2816 87.3475 54.1536 87.1835 53.9322C86.6795 53.2496 87.0755 50.7349 88.3648 46.4549C86.2315 44.8749 83.0835 42.3123 83.0835 40.9429C83.0835 40.0256 83.9022 39.1763 89.8448 39.1763C90.1995 39.1763 90.5062 39.1803 90.7395 39.1843C93.2688 32.4456 94.1168 32.4456 94.5288 32.4456C94.9422 32.4456 95.7902 32.4456 98.3275 39.2043C105.975 39.3816 105.975 40.3936 105.975 40.9429C105.975 41.7576 104.197 43.6042 100.686 46.4349C102.658 53.0896 101.91 53.8376 101.663 54.0869C101.533 54.2149 101.298 54.3696 100.915 54.3709Z" fill="#F8ED1C"/>
<path d="M100.268 45.9161C100.057 46.0867 99.9703 46.3668 100.046 46.6254C101.856 52.7228 101.265 53.5414 101.192 53.6148C101.134 53.6721 101.038 53.7041 100.913 53.7041C100.122 53.7027 97.757 52.3921 94.8877 50.3681C94.773 50.2854 94.6383 50.2454 94.5037 50.2454C94.3823 50.2454 94.2623 50.2775 94.1543 50.3441C89.945 52.9268 88.2223 53.6148 87.8677 53.6148L87.7223 53.5388C87.6663 53.4521 87.233 52.5281 89.0037 46.6481C89.085 46.3774 88.9877 46.0867 88.7623 45.9187C85.0637 43.1814 83.7503 41.5281 83.7503 40.9428C83.7503 40.5321 84.5423 39.8428 89.845 39.8428C90.1957 39.8428 90.4983 39.8468 90.729 39.8508C90.9983 39.8308 91.265 39.6814 91.3637 39.4187C93.5623 33.5641 94.3943 33.1414 94.5757 33.1121C94.665 33.1414 95.4997 33.5655 97.7023 39.4375C97.7983 39.6935 98.0383 39.8641 98.3117 39.8708C104.661 40.0188 105.26 40.7587 105.309 40.9374C105.293 41.1014 104.978 42.1161 100.268 45.9161ZM106.642 40.9428C106.642 39.5401 105.377 38.7347 98.7903 38.548C96.413 32.296 95.453 31.7788 94.529 31.7788C93.609 31.7788 92.649 32.2948 90.2823 38.5108C90.1463 38.5108 90.001 38.5095 89.845 38.5095C84.4303 38.5095 82.417 39.1694 82.417 40.9428C82.417 41.4121 82.417 42.8161 87.593 46.7094C85.9437 52.3014 86.185 53.7041 86.649 54.3294C86.9397 54.7227 87.385 54.9481 87.8677 54.9481C88.189 54.9481 89.153 54.9481 94.4783 51.7081C96.7383 53.2828 99.5623 55.0374 100.916 55.0374H100.918C101.528 55.0347 101.916 54.7747 102.134 54.5574C102.572 54.1201 103.377 53.3161 101.45 46.6734C106.014 42.9561 106.642 41.6894 106.642 40.9428Z" fill="#C7901A"/>
<path d="M94.5384 35.4588C94.0131 35.4588 92.8317 39.0282 92.3331 40.4402C90.6704 40.8562 86.6224 40.5642 86.2771 41.3135C85.9224 42.0829 90.8171 43.6255 93.3091 43.8069C97.6371 44.1215 102.973 42.5149 102.858 41.4256C102.801 40.8896 98.0464 40.8175 96.7571 40.5642C96.1344 38.4068 95.2864 35.4588 94.5384 35.4588Z" fill="white"/>
<path d="M87.8048 22.5921C86.4448 22.5921 82.9088 20.2042 81.3941 19.1335C79.4808 20.3068 75.7648 22.5028 74.7581 22.5028C74.4875 22.5028 74.2381 22.3748 74.0741 22.1534C73.5688 21.4708 73.9661 18.9562 75.2555 14.6762C73.1221 13.0962 69.9741 10.5334 69.9741 9.16411C69.9741 8.24677 70.7928 7.39744 76.7355 7.39744C77.0901 7.39744 77.3968 7.40151 77.6301 7.40551C80.1595 0.666847 81.0075 0.666843 81.4195 0.666843C81.8328 0.666843 82.6808 0.666771 85.2168 7.42544C92.8648 7.60277 92.8648 8.61477 92.8648 9.16411C92.8648 9.97878 91.0861 11.8255 87.5755 14.6562C89.5488 21.3108 88.8008 22.0588 88.5528 22.3081C88.4235 22.4361 88.1888 22.5908 87.8048 22.5921Z" fill="#F8ED1C"/>
<path d="M87.1583 14.1374C86.9476 14.308 86.8596 14.588 86.937 14.8466C88.745 20.944 88.1543 21.7626 88.081 21.8359C88.0236 21.8933 87.9276 21.9253 87.8036 21.9253C87.0116 21.9239 84.6463 20.6133 81.7783 18.5893C81.6636 18.5067 81.529 18.4667 81.3943 18.4667C81.273 18.4667 81.153 18.4987 81.045 18.5654C76.8356 21.148 75.113 21.8359 74.7583 21.8359L74.613 21.76C74.557 21.6734 74.1236 20.7493 75.8943 14.8693C75.9756 14.5986 75.8783 14.308 75.653 14.14C71.9543 11.4027 70.641 9.74928 70.641 9.16395C70.641 8.75328 71.433 8.06395 76.7356 8.06395C77.0863 8.06395 77.389 8.06802 77.6196 8.07202C77.889 8.05202 78.1556 7.90265 78.2543 7.63999C80.453 1.78532 81.285 1.36268 81.4663 1.33335C81.5556 1.36268 82.3903 1.78661 84.593 7.65861C84.6876 7.91461 84.929 8.08527 85.201 8.09194C91.5503 8.23994 92.149 8.97994 92.1983 9.15861C92.1836 9.32261 91.8689 10.3374 87.1583 14.1374ZM93.5316 9.16395C93.5316 7.76128 92.2663 6.95595 85.681 6.76928C83.3036 0.517284 82.3436 1.33514e-05 81.4196 1.33514e-05C80.4996 1.33514e-05 79.5396 0.516045 77.1729 6.73204C77.0369 6.73204 76.8916 6.73061 76.7356 6.73061C71.321 6.73061 69.3076 7.39061 69.3076 9.16395C69.3076 9.63328 69.3076 11.0373 74.4836 14.9306C72.8343 20.5226 73.0756 21.9253 73.5396 22.5507C73.8303 22.944 74.2756 23.1693 74.7583 23.1693C75.0796 23.1693 76.0436 23.1693 81.369 19.9293C83.629 21.504 86.4516 23.2586 87.8049 23.2586H87.8076C88.4183 23.2559 88.8063 22.996 89.0236 22.7787C89.4609 22.3413 90.2676 21.5373 88.341 14.8947C92.9049 11.1773 93.5316 9.91061 93.5316 9.16395Z" fill="#C7901A"/>
<path d="M81.429 3.68001C80.9037 3.68001 79.7223 7.24939 79.2237 8.66139C77.561 9.07739 73.513 8.78536 73.1677 9.5347C72.813 10.304 77.7077 11.8467 80.1997 12.0281C84.5277 12.3427 89.8637 10.736 89.7477 9.64668C89.6904 9.11068 84.9357 9.03868 83.6477 8.78535C83.0237 6.62801 82.177 3.68001 81.429 3.68001Z" fill="white"/>
<path d="M47.8033 65.7029C46.4433 65.7029 42.9073 63.3149 41.3927 62.2443C39.4793 63.4176 35.7633 65.6136 34.7566 65.6136C34.486 65.6136 34.2366 65.4856 34.0726 65.2643C33.5686 64.5816 33.9647 62.0669 35.254 57.7869C33.1207 56.2069 29.9727 53.6443 29.9727 52.2749C29.9727 51.3576 30.7913 50.5083 36.734 50.5083C37.0887 50.5083 37.3953 50.5122 37.6287 50.5162C40.158 43.7776 41.006 43.7776 41.418 43.7776C41.8313 43.7776 42.6793 43.7776 45.2153 50.5363C52.8633 50.7136 52.8633 51.7256 52.8633 52.2749C52.8633 53.0896 51.0846 54.9363 47.574 57.7669C49.5473 64.4216 48.7993 65.1696 48.5513 65.4189C48.422 65.5469 48.1873 65.7016 47.8033 65.7029Z" fill="#F8ED1C"/>
<path d="M47.1568 57.2481C46.9461 57.4188 46.8582 57.6987 46.9355 57.9574C48.7435 64.0547 48.1528 64.8734 48.0795 64.9467C48.0222 65.0041 47.9262 65.0361 47.8022 65.0361C47.0102 65.0348 44.6448 63.7241 41.7768 61.7001C41.6621 61.6174 41.5275 61.5775 41.3928 61.5775C41.2715 61.5775 41.1515 61.6094 41.0435 61.6761C36.8341 64.2588 35.1115 64.9467 34.7568 64.9467L34.6115 64.8707C34.5555 64.7841 34.1221 63.8601 35.8928 57.9801C35.9741 57.7094 35.8768 57.4188 35.6515 57.2508C31.9528 54.5134 30.6395 52.8601 30.6395 52.2748C30.6395 51.8641 31.4315 51.1748 36.7342 51.1748C37.0848 51.1748 37.3875 51.1787 37.6182 51.1827C37.8875 51.1627 38.1542 51.0134 38.2528 50.7508C40.4515 44.8961 41.2835 44.4735 41.4648 44.4441C41.5542 44.4735 42.3888 44.8974 44.5915 50.7694C44.6861 51.0254 44.9275 51.1961 45.1995 51.2028C51.5488 51.3508 52.1475 52.0908 52.1968 52.2694C52.1822 52.4334 51.8675 53.4481 47.1568 57.2481ZM53.5302 52.2748C53.5302 50.8721 52.2648 50.0667 45.6795 49.8801C43.3022 43.6281 42.3422 43.1108 41.4182 43.1108C40.4982 43.1108 39.5381 43.6268 37.1715 49.8428C37.0355 49.8428 36.8902 49.8414 36.7342 49.8414C31.3195 49.8414 29.3062 50.5015 29.3062 52.2748C29.3062 52.7441 29.3062 54.1481 34.4822 58.0415C32.8328 63.6335 33.0741 65.0361 33.5381 65.6614C33.8288 66.0548 34.2741 66.2801 34.7568 66.2801C35.0781 66.2801 36.0422 66.2801 41.3675 63.0401C43.6275 64.6148 46.4502 66.3694 47.8035 66.3694H47.8061C48.4168 66.3668 48.8048 66.1068 49.0221 65.8894C49.4595 65.4521 50.2661 64.6481 48.3395 58.0054C52.9035 54.2881 53.5302 53.0215 53.5302 52.2748Z" fill="#C7901A"/>
</svg>
