<svg width="201" height="200" viewBox="0 0 201 200" fill="none" xmlns="http://www.w3.org/2000/svg">
<path d="M86.3286 12.2687C95.1466 7.17766 106.011 7.17766 114.829 12.2687L169.431 43.7935C178.249 48.8845 183.681 58.2931 183.681 68.4752V131.525C183.681 141.707 178.249 151.115 169.431 156.207L114.829 187.731C106.011 192.822 95.1465 192.822 86.3286 187.731L31.7261 156.207C22.9081 151.115 17.4761 141.707 17.4761 131.525V68.4752C17.4761 58.2931 22.9081 48.8845 31.7261 43.7935L86.3286 12.2687Z" fill="#42D3FF" stroke="white" stroke-width="7"/>
<path d="M40.5192 68.02C40.4352 67.712 41.8492 67.558 44.7612 67.558C47.9812 67.558 49.6332 67.824 49.7172 68.356L51.7752 86.038L56.2272 68.146C56.3672 67.726 57.4592 67.516 59.5032 67.516C61.5472 67.516 62.6392 67.712 62.7792 68.104L67.1472 86.122L69.5832 68.272C69.6392 67.964 70.2832 67.754 71.5152 67.642C72.7472 67.53 73.7412 67.474 74.4972 67.474C77.4372 67.474 78.8652 67.67 78.7812 68.062L73.6992 95.908C73.5872 96.328 72.7892 96.636 71.3052 96.832C69.8212 97.028 68.6172 97.126 67.6932 97.126C64.2212 97.126 62.4012 96.734 62.2332 95.95L59.3772 84.4L56.2692 95.908C56.1572 96.412 55.1772 96.776 53.3292 97C52.3772 97.084 51.4252 97.126 50.4732 97.126L47.7852 97C45.9372 96.804 44.9572 96.454 44.8452 95.95L40.5192 68.02ZM88.5725 96.706C88.5725 96.958 87.3965 97.084 85.0445 97.084C82.7205 97.084 81.5585 96.888 81.5585 96.496V67.726C81.5585 67.53 81.9925 67.39 82.8605 67.306C83.7285 67.222 84.4565 67.18 85.0445 67.18C87.3965 67.18 88.5725 67.432 88.5725 67.936V76.336C90.1405 75.86 91.3305 75.622 92.1425 75.622C94.2705 75.622 95.9505 76.196 97.1825 77.344C98.4145 78.464 99.0305 80.564 99.0305 83.644V96.664C99.0305 96.916 97.9385 97.042 95.7545 97.042C93.2905 96.958 92.0585 96.818 92.0585 96.622V84.274C92.0585 82.902 91.6105 82.216 90.7145 82.216C90.0985 82.216 89.3845 82.51 88.5725 83.098V96.706ZM105.245 81.754C104.461 80.354 104.069 79.22 104.069 78.352C104.069 77.456 104.307 76.882 104.783 76.63C106.379 75.93 108.563 75.58 111.335 75.58C114.135 75.58 116.109 76.238 117.257 77.554C118.405 78.842 118.979 80.76 118.979 83.308V89.944H120.407C120.883 89.944 121.247 90.224 121.499 90.784C121.779 91.344 121.919 92.114 121.919 93.094C121.919 94.074 121.667 95.04 121.163 95.992C120.687 96.944 120.029 97.42 119.189 97.42C117.677 97.42 116.459 97.014 115.535 96.202C115.115 95.866 114.793 95.46 114.569 94.984C113.281 96.608 111.279 97.42 108.563 97.42C106.519 97.42 104.797 96.692 103.397 95.236C101.997 93.78 101.297 92.058 101.297 90.07C101.297 85.506 104.027 83.224 109.487 83.224H111.797V82.804C111.797 82.076 111.671 81.614 111.419 81.418C111.195 81.194 110.649 81.082 109.781 81.082C108.717 81.082 107.205 81.306 105.245 81.754ZM108.605 89.482C108.605 90.098 108.773 90.574 109.109 90.91C109.445 91.218 109.865 91.372 110.369 91.372C110.901 91.372 111.377 91.162 111.797 90.742V87.508H110.621C109.277 87.508 108.605 88.166 108.605 89.482ZM131.185 86.584C131.185 89.328 132.221 90.7 134.293 90.7C135.637 90.7 136.757 90.434 137.653 89.902C138.073 89.902 138.409 90.63 138.661 92.086C138.941 93.514 139.081 94.494 139.081 95.026C139.081 95.53 139.011 95.866 138.871 96.034C137.387 96.958 135.357 97.42 132.781 97.42C130.205 97.42 128.007 96.468 126.187 94.564C124.395 92.632 123.499 90.014 123.499 86.71C123.499 83.378 124.381 80.69 126.145 78.646C127.937 76.602 130.303 75.58 133.243 75.58C136.211 75.58 138.269 76.294 139.417 77.722C139.669 78.03 139.795 78.492 139.795 79.108C139.795 79.696 139.683 80.424 139.459 81.292C138.955 83.084 138.297 84.12 137.485 84.4C137.373 84.428 137.205 84.442 136.981 84.442C136.785 84.442 136.533 84.274 136.225 83.938C135.133 82.846 134.251 82.3 133.579 82.3C132.935 82.3 132.375 82.636 131.899 83.308C131.423 83.98 131.185 85.072 131.185 86.584ZM142.098 67.936C142.098 67.488 143.372 67.264 145.92 67.264C148.3 67.348 149.49 67.53 149.49 67.81V83.938L153.648 76.252C153.844 75.832 155.034 75.622 157.218 75.622C159.402 75.622 160.802 75.762 161.418 76.042L155.958 84.946L162.258 96.748C162.314 96.86 161.782 96.944 160.662 97C159.57 97.084 158.66 97.126 157.932 97.126C155.244 97.126 153.802 97 153.606 96.748L149.448 87.424V96.706C149.448 97.07 148.216 97.252 145.752 97.252C143.316 97.252 142.098 97.084 142.098 96.748V67.936ZM45.055 117.754C44.271 116.354 43.879 115.22 43.879 114.352C43.879 113.456 44.117 112.882 44.593 112.63C46.189 111.93 48.373 111.58 51.145 111.58C53.945 111.58 55.919 112.238 57.067 113.554C58.215 114.842 58.789 116.76 58.789 119.308V125.944H60.217C60.693 125.944 61.057 126.224 61.309 126.784C61.589 127.344 61.729 128.114 61.729 129.094C61.729 130.074 61.477 131.04 60.973 131.992C60.497 132.944 59.839 133.42 58.999 133.42C57.487 133.42 56.269 133.014 55.345 132.202C54.925 131.866 54.603 131.46 54.379 130.984C53.091 132.608 51.089 133.42 48.373 133.42C46.329 133.42 44.607 132.692 43.207 131.236C41.807 129.78 41.107 128.058 41.107 126.07C41.107 121.506 43.837 119.224 49.297 119.224H51.607V118.804C51.607 118.076 51.481 117.614 51.229 117.418C51.005 117.194 50.459 117.082 49.591 117.082C48.527 117.082 47.015 117.306 45.055 117.754ZM48.415 125.482C48.415 126.098 48.583 126.574 48.919 126.91C49.255 127.218 49.675 127.372 50.179 127.372C50.711 127.372 51.187 127.162 51.607 126.742V123.508H50.431C49.087 123.508 48.415 124.166 48.415 125.482ZM101.632 133.042C99.1403 133.042 97.8943 132.762 97.8943 132.202L97.0123 115.36L91.8883 132.412C91.7763 132.748 90.8243 132.916 89.0323 132.916C87.2403 132.916 86.3163 132.762 86.2603 132.454L80.9683 115.192L80.3803 131.95C80.3523 132.37 79.8203 132.664 78.7843 132.832C77.7483 132.972 76.8803 133.042 76.1803 133.042C75.5083 133.042 74.8503 133 74.2063 132.916C72.8623 132.72 72.2043 132.37 72.2323 131.866L73.1983 104.566C73.1983 103.894 74.9063 103.558 78.3223 103.558C79.3303 103.558 80.5623 103.642 82.0183 103.81C83.4743 103.95 84.2863 104.244 84.4543 104.692L89.1583 117.922L93.2743 104.65C93.5263 103.922 95.4583 103.558 99.0703 103.558C100.106 103.558 101.338 103.642 102.766 103.81C104.222 103.95 104.95 104.216 104.95 104.608L106.168 132.16C106.168 132.468 105.622 132.692 104.53 132.832C103.438 132.972 102.472 133.042 101.632 133.042ZM111.932 130.522C110.196 128.59 109.328 125.916 109.328 122.5C109.328 119.084 110.196 116.41 111.932 114.478C113.696 112.546 116.062 111.58 119.03 111.58C121.998 111.58 124.35 112.546 126.086 114.478C127.822 116.41 128.69 119.084 128.69 122.5C128.69 125.916 127.822 128.59 126.086 130.522C124.35 132.454 121.998 133.42 119.03 133.42C116.062 133.42 113.696 132.454 111.932 130.522ZM119.03 118.594C117.462 118.594 116.678 119.882 116.678 122.458C116.678 125.034 117.462 126.322 119.03 126.322C120.626 126.322 121.424 125.034 121.424 122.458C121.424 119.882 120.626 118.594 119.03 118.594ZM139.303 132.664C139.303 132.916 137.875 133.042 135.019 133.042C132.779 133.014 131.659 132.902 131.659 132.706V104.104C131.659 103.684 133.017 103.474 135.733 103.474C138.113 103.558 139.303 103.698 139.303 103.894V132.664ZM158.978 131.866C157.214 132.902 154.946 133.42 152.174 133.42C149.402 133.42 147.064 132.482 145.16 130.606C143.256 128.702 142.304 126.084 142.304 122.752C142.304 119.392 143.214 116.69 145.034 114.646C146.882 112.602 149.206 111.58 152.006 111.58C154.806 111.58 156.962 112.294 158.474 113.722C160.014 115.15 160.784 116.886 160.784 118.93C160.784 123.466 158.18 125.734 152.972 125.734H150.074C150.074 126.574 150.298 127.162 150.746 127.498C151.222 127.806 151.908 127.96 152.804 127.96C154.764 127.96 156.626 127.512 158.39 126.616C158.418 126.588 158.544 126.784 158.768 127.204C159.44 128.408 159.776 129.43 159.776 130.27C159.776 131.082 159.51 131.614 158.978 131.866ZM153.728 119.728C153.728 118.552 153.154 117.964 152.006 117.964C151.474 117.964 151.012 118.132 150.62 118.468C150.256 118.776 150.074 119.238 150.074 119.854V121.156H152.342C153.266 121.156 153.728 120.68 153.728 119.728Z" fill="#0A3442"/>
</svg>
